<svg width="590" height="214" viewBox="0 0 590 214" fill="none" xmlns="http://www.w3.org/2000/svg">
<g opacity="0.25" filter="url(#filter0_d)">
<rect x="24" y="34" width="538" height="124" fill="white"/>
</g>
<path opacity="0.3" d="M327.106 26.3262C326.661 24.1914 320.782 27.5261 320.337 25.3913C320.459 26.2482 326.339 22.9135 327.106 26.3262ZM336.635 25.8192C333.552 25.9833 332.188 24.3291 328.227 26.2666C330.75 26.1324 334.076 27.6822 336.635 25.8192ZM343.642 25.4464C340.839 25.5956 338.597 25.7149 336.757 26.6761C338.841 27.4287 342.484 27.2348 343.642 25.4464ZM328.836 30.5511C334.32 29.396 343.654 31.4895 349.253 28.1698C343.849 28.889 336.16 28.4347 328.836 30.5511ZM540.527 21.8787C541.21 22.7057 543.69 21.2787 545.17 20.7683C546.773 21.1147 545.969 19.4307 544.768 19.9263C541.685 20.0903 538.364 21.5621 536.683 21.6515C537.926 22.4488 537.006 22.9294 536.287 23.8311C537.207 23.3504 538.931 24.5538 539.528 22.7952C539.248 22.8101 538.687 22.84 538.846 21.9681C539.528 22.7952 540.168 22.3295 540.527 21.8787ZM523.754 24.0662C525.155 23.9916 527.476 23.4364 528.079 24.6994C528.914 21.6331 522.511 23.2689 523.754 24.0662ZM341.984 37.622C346.828 36.9326 348.753 38.557 353.073 36.1687C348.631 37.7001 345.859 33.0989 341.984 37.622ZM560.201 28.1707C558.16 28.711 557.916 26.9972 556.515 27.0718C556.039 29.6872 552.03 27.3104 551.317 31.2335C554.997 29.311 557.441 29.6127 560.201 28.1707ZM466.309 33.166C469.831 32.1153 472.64 34.9877 475.156 31.832C472.554 32.4021 466.827 31.8434 466.309 33.166ZM355.766 41.2057C356.564 39.8682 358.97 41.8986 358.447 40.1997C358.166 40.2146 357.606 40.2444 357.764 39.3726C358.044 39.3577 358.325 39.3428 358.483 38.471C357.362 38.5306 357.405 39.8234 356.802 38.5605C356.284 39.8831 355.924 40.3339 355.766 41.2057ZM539.503 30.567C540.185 31.3941 543.67 32.072 544.426 29.4417C542.665 29.9671 541.1 27.8919 539.503 30.567ZM496.268 36.3208C496.907 35.855 498.351 37.0733 498.388 35.3446C497.188 35.8401 497.261 32.3827 496.024 34.607C496.225 35.028 496.426 35.449 496.268 36.3208ZM349.124 44.1492C350.726 44.4956 352.408 44.4062 353.651 45.2034C354.163 40.8593 349.843 43.2476 349.124 44.1492ZM399.732 40.5934C398.05 40.6828 397.648 39.8408 396.088 40.7872C396.368 40.7723 396.929 40.7425 396.771 41.6143C395.972 42.9518 392.006 41.8678 392.048 43.1606C395.893 43.3877 396.575 44.2148 399.732 40.5934ZM337.474 45.6324C336.073 45.7069 336.39 43.9633 334.629 44.4887C334.391 45.7964 333.35 45.4202 333.313 47.1489C334.793 46.6384 336.195 46.5638 337.474 45.6324ZM417.352 41.3827C418.754 41.3081 420.557 42.0755 421.234 39.8811C420.033 40.3766 417.627 38.3462 417.352 41.3827ZM528.383 36.7706C529.626 37.5679 529.663 35.8391 530.302 35.3734C530.144 36.2452 531.143 35.3287 531.302 34.4569C530.662 34.9226 529.218 33.7043 528.901 35.448C529.742 35.4032 528.822 35.8839 528.383 36.7706ZM375.275 45.3481C371.911 45.527 368.743 43.1054 365.983 44.5473C366.269 47.554 373.355 46.7453 375.275 45.3481ZM410.711 44.3262C411.308 42.5676 413.434 44.613 413.629 42.0124C412.709 42.4931 409.626 42.6571 410.711 44.3262ZM352.652 46.12C351.451 46.6155 349.447 45.4271 348.569 47.2006C349.41 47.1558 350.933 47.9382 352.652 46.12ZM473.212 41.0009C474.613 40.9264 476.295 40.8369 477.093 39.4994C475.491 39.1529 474.01 39.6634 473.212 41.0009ZM268.757 64.8292C270.116 63.4618 270.561 65.5966 271.517 63.3873C271.237 63.4022 270.677 63.432 270.835 62.5602C271.115 62.5453 271.396 62.5304 271.554 61.6586C270.153 61.7331 269.556 63.4917 268.757 64.8292ZM577.868 53.1323C576.984 51.8842 574.578 49.8538 572.939 51.2361C574.541 51.5825 576.509 54.4996 577.868 53.1323ZM269.859 75.5629C271.699 74.6016 273.106 77.5486 274.624 75.3094C273.381 74.5121 271.175 72.9027 269.859 75.5629ZM247.526 102.221C249.007 101.71 250.086 100.358 251.085 99.4413C249.403 99.5308 248.605 100.868 247.526 102.221ZM256.586 107.351C258.067 106.84 258.913 109.817 260.071 108.029C259.31 107.638 257.744 105.562 256.586 107.351ZM248.92 118.983C250.316 115.887 253.24 116.594 254.959 114.776C252.436 114.91 248.914 115.961 248.92 118.983ZM563.88 108.701C563.917 106.973 566.951 102.494 564.989 102.599C565.154 104.748 562.996 107.453 563.88 108.701ZM251.016 125.778C251.503 129.206 256.426 128.081 257.742 125.42C255.579 125.104 253.416 124.787 251.016 125.778ZM562.161 110.519C561.363 111.857 562.167 113.541 562.765 111.782C561.363 111.857 564.361 109.107 562.679 109.197C562.521 110.069 559.639 110.654 562.161 110.519ZM256.395 132.831C259.441 134.395 261.16 132.577 264.084 133.285C263.798 130.278 258.674 130.983 256.395 132.831ZM558.474 129.278C559.034 129.249 559.235 129.67 559.717 130.076C559.674 128.783 560.99 126.123 559.51 126.633C559.351 127.505 558.912 128.392 558.474 129.278ZM267.525 152.528C265.922 152.182 264.399 151.399 262.2 152.811C264.722 152.677 265.368 155.233 267.525 152.528ZM348.346 159.884C349.303 157.674 345.3 158.319 344.861 159.206C346.902 158.666 346.585 160.409 348.346 159.884ZM327.252 164.46C318.162 164.08 329.5 167.362 331.578 165.093C330.097 165.603 328.934 164.37 327.252 164.46ZM536.141 155.936C536.744 157.199 537.701 154.99 538.225 156.689C538.462 155.381 538.341 154.524 537.859 154.118C537.621 155.426 536.379 154.629 536.141 155.936ZM323.816 168.096C324.937 168.036 327.544 170.488 329.823 168.64C327.502 169.195 325.571 164.549 323.816 168.096ZM533.91 162.099C535.671 161.573 537.432 161.048 538.31 159.274C535.83 160.701 535.026 159.018 533.91 162.099ZM448.506 166.211C445.905 166.781 442.499 165.667 440.5 167.5C443.181 166.494 446.587 167.608 448.506 166.211ZM492.43 164.306C491.029 164.38 490.706 163.102 488.945 163.628C488.189 166.258 491.991 165.192 492.43 164.306ZM331.171 16.1811C329.727 14.9628 326.681 13.3981 324.402 15.2461C326.644 15.1268 329.172 18.0142 331.171 16.1811ZM289.561 34.3674C289.72 33.4956 290.079 33.0448 290.518 32.158C288.44 34.427 283.797 35.5374 283.882 38.1231C284.041 37.2512 284.601 37.2214 285.442 37.1767C284.132 42.8584 290.164 35.6304 291.852 38.5624C290.456 41.6585 286.648 39.7027 285.052 42.3777C287.574 42.2435 292.534 39.3895 295.141 41.8409C290.864 45.522 285.338 45.3844 282.133 44.6915C281.018 47.7727 275.01 47.2289 275.29 47.214C275.053 48.5217 276.332 47.5902 276.454 48.4471C274.254 49.8593 272.335 51.2564 271.019 53.9166C272.341 54.278 272.256 51.6924 273.578 52.0537C272.061 54.2929 272.7 53.8272 273.584 55.0752C272.907 57.2697 270.269 59.5685 270.872 60.8315C271.628 58.2011 276.593 58.3686 277.477 59.6167C274.753 59.3299 273.437 61.9901 272.121 64.6503C274.003 64.9818 273.4 63.7188 274.04 63.2531C274.802 63.6443 276.282 63.1338 276.605 64.4117C274.606 66.2448 271.402 65.5519 269.805 68.227C268.684 68.2866 269.641 66.0773 268.8 66.122C268.002 67.4596 264.559 68.0744 265.083 69.7733C265.802 68.8717 268.562 67.4297 269.165 68.6927C268.446 69.5944 267.045 69.6689 266.246 71.0065C268.251 72.1949 272.339 74.1359 274.459 73.1597C273.619 73.2044 273.137 72.7983 273.016 71.9414C275.38 72.679 276.3 72.1984 277.945 73.8376C277.067 75.6111 276.019 72.2133 274.703 74.8735C275.867 76.1066 278.347 74.6796 279.029 75.5067C279.187 74.6349 279.346 73.7631 279.986 73.2973C280.668 74.1244 283.751 73.9604 284.835 75.6295C283.915 76.1101 282.471 74.8919 282.154 76.6355C282.197 77.9283 284.677 76.5013 284.439 77.809C283.678 77.4178 281.758 78.815 282.8 79.1913C285.444 79.914 291.092 80.9086 294.419 82.4584C286.248 81.598 279.717 79.3553 274.519 83.5171C277.243 83.8039 279.686 84.1056 281.051 85.7597C277.925 84.6309 275.25 88.6585 273.362 85.3054C274.282 84.8248 274.324 86.1176 274.763 85.2309C272.156 82.7795 267.116 86.0694 263.113 86.714C263.156 88.0069 265.636 86.5798 265.398 87.8876C265.118 87.9025 264.557 87.9323 264.399 88.8041C267.878 86.4606 270.803 87.1683 273.928 88.2971C267.08 87.7981 264.563 90.9538 259.725 94.6648C260.487 95.0559 259.567 95.5366 259.329 96.8443C260.651 97.2056 260.286 94.6349 261.809 95.4173C259.213 99.0089 261.851 96.7101 263.015 97.9433C261.297 99.7614 260.773 98.0626 260.017 100.693C261.857 99.7316 262.978 99.672 263.782 101.356C260.906 104.963 258.938 102.045 255.38 104.825C255.063 106.568 255.544 106.975 256.306 107.366C257.183 105.592 258.103 105.112 259.785 105.022C259.511 108.059 264.635 107.354 264.36 110.391C264.519 109.519 265.079 109.489 265.92 109.444C265.524 111.624 266.243 110.722 267.126 111.97C261.442 112.704 259.194 109.802 256.08 114.716C257.238 112.928 255.842 116.024 255.281 116.054C256.403 115.994 257.883 115.484 257.566 117.228C256.445 117.287 255.604 117.332 254.483 117.392C253.727 120.022 256.287 118.159 256.25 119.888C254.848 119.962 252.564 118.789 253.008 120.924C255.409 119.932 258.498 122.79 258.985 126.218C258.065 126.698 257.901 124.549 257.425 127.164C259.43 128.352 258.705 126.233 261.227 126.098C260.788 126.985 260.35 127.872 259.911 128.758C261.434 129.541 260.587 126.564 261.708 126.504C261.873 128.654 265.273 126.746 265.717 128.881C265.157 128.911 264.036 128.971 264.718 129.798C268.197 127.454 267.807 132.655 270.488 131.649C269.896 136.429 274.503 137.048 277.184 136.042C276.422 135.65 275.301 135.71 275.179 134.853C278.225 136.418 282.192 137.502 284.556 138.24C282.07 136.645 285.719 139.473 282.758 140.494C285.725 142.494 288.083 140.21 290.13 142.692C282.283 143.109 275.825 137.409 267.977 137.827C266.063 142.245 261.135 140.349 258.417 143.084C260.379 142.979 260.702 144.257 262.341 142.875C263.431 147.566 266.831 145.658 270.115 145.915C278.005 146.79 285.145 153.317 292.877 155.065C291.586 149.953 289.154 155.694 288.302 149.696C289.746 150.914 291.019 146.961 291.543 148.66C290.782 148.269 289.344 150.072 290.465 150.013C291.422 147.803 292.347 150.344 293.548 149.849C292.554 153.787 295.595 152.33 296.32 154.45C295.04 155.381 294.193 152.404 293.919 155.441C295.759 154.479 296.965 157.005 298.403 155.202C297.361 154.826 297.039 153.548 296.356 152.721C297.197 152.676 296.314 151.428 297.155 151.383C297.404 156.119 303.686 153.626 304.295 157.911C303.771 156.212 302.01 156.737 301.053 158.946C304.295 157.911 303.978 159.654 307.219 158.618C306.982 159.926 307.542 159.896 307.664 160.753C306.945 161.655 303.984 162.676 304.946 163.488C306.226 162.556 308.109 162.888 309.552 164.106C308.913 164.572 308.273 165.038 307.913 165.489C312.831 161.342 320.922 162.638 326.046 161.934C324.084 162.038 322.561 161.256 321.678 160.008C323.359 159.918 321.233 157.873 322.634 157.798C324.115 157.288 325.638 158.07 323.92 159.888C325.961 159.348 327.484 160.13 329.087 160.477C329.001 157.891 328.483 159.214 330.123 157.832C326.997 156.703 325.601 159.799 324.194 156.852C327.838 156.658 329.678 155.697 332.724 157.261C329.964 158.703 332.005 158.163 330.409 160.838C330.89 161.244 334.095 161.937 334.052 160.644C333.492 160.674 332.291 161.17 332.529 159.862C333.729 159.366 336.691 158.345 335.454 160.57C337.897 160.871 339.567 154.739 341.413 156.799C340.572 156.844 339.932 157.31 339.493 158.196C341.535 157.656 340.498 160.301 340.7 160.722C341.297 158.964 342.466 163.219 343.783 160.558C343.661 159.701 342.54 159.761 342.857 158.017C343.697 157.973 346.701 158.245 345.538 157.011C343.935 156.665 343.295 157.131 343.174 156.274C345.733 154.411 349.26 156.382 349.504 158.095C347.585 159.493 348.097 155.149 347.14 157.358C347.548 161.221 351.74 154.955 351.667 158.412C351.106 158.442 350.784 157.164 350.266 158.487C351.106 158.442 351.953 161.419 353.19 159.194C351.99 159.69 351.387 158.427 352.788 158.352C353.026 157.045 352.465 157.075 352.343 156.218C353.665 156.579 353.105 156.609 354.184 155.256C354.025 156.128 353.666 156.579 353.227 157.466C354.988 156.94 356.029 157.317 356.633 158.58C356.87 157.272 357.51 156.806 358.272 157.197C357.833 158.084 357.473 158.535 357.875 159.377C358.997 159.317 360.118 159.258 361.519 159.183C362.037 157.86 361.275 157.469 361.915 157.003C362.476 156.974 362.555 156.538 362.915 156.087C362.756 156.959 362.598 157.831 362.439 158.702C367.801 156.69 370.567 158.27 376.453 157.957C377.05 156.198 373.967 156.362 376.246 154.514C377.69 155.733 381.492 154.667 383.813 154.112C383.576 155.419 384.136 155.39 384.258 156.246C382.497 156.772 379.652 155.628 378.494 157.417C380.541 159.898 387.42 155.647 387.548 159.525C388.066 158.202 390.43 158.94 390.631 159.361C391.35 158.459 391.545 155.859 392.666 155.799C392.428 157.107 392.55 157.964 393.031 158.37C395.511 156.943 397.357 159.003 399.033 155.892C399.758 158.012 401.635 155.322 401.641 158.344C405.601 156.406 410.536 161.324 415.532 156.741C419.864 160.396 429.223 154.718 434.956 158.298C435.992 155.653 432.994 158.402 434.031 155.757C442.037 154.468 451.133 157.869 458.932 153.137C458.219 157.06 465.379 152.794 467.145 155.29C458.378 156.188 468.23 156.959 470.63 155.968C470.149 155.562 469.668 155.156 469.467 154.735C471.27 155.502 472.349 154.15 474.39 153.61C474.073 155.353 472.391 155.443 471.672 156.344C473.719 158.826 476.669 151.762 478.636 154.679C477.796 154.724 477.436 155.174 476.997 156.061C479.319 155.506 480.482 156.739 482.085 157.085C485.564 154.742 493.655 156.038 498.341 156.221C497.579 155.829 496.141 157.633 497.262 157.573C498.06 156.236 500.144 156.988 501.143 156.072C499.705 157.875 502.106 156.884 500.668 158.687C509.24 160.389 509.351 155.203 516.76 155.672C515.236 154.89 514.359 156.664 513.841 157.986C513.999 157.114 512.799 157.61 512.318 157.204C511.599 158.105 511.562 159.834 510.441 159.894C507.961 161.321 503.995 160.237 501.515 161.664C500.193 161.302 497.993 162.715 500.515 162.58C505.438 161.455 509.606 162.96 513.53 162.751C514.572 163.128 513.816 165.758 515.577 165.233C516.332 162.602 514.212 163.578 513.968 161.865C515.09 161.805 516.01 161.324 516.448 160.438C514.888 161.384 514.285 160.121 513.043 159.324C517.167 159.536 520.896 161.928 521.128 157.598C519.41 159.417 516.485 158.709 514.401 157.956C516.443 157.416 517.484 157.792 518.484 156.876C518.362 156.019 516.802 156.965 517.04 155.657C519.002 155.553 520.446 156.771 524.449 156.127C523.693 158.757 529.579 158.444 531.858 156.596C529.335 156.73 526.453 157.315 525.369 155.646C528.013 156.369 532.693 153.53 533.058 156.1C532.424 159.588 531.699 157.468 530.34 158.835C532.832 163.451 524.905 164.305 524.302 163.042C523.747 166.093 520.78 164.092 519.299 164.603C519.696 162.423 518.453 161.626 516.29 161.309C516.131 162.181 515.772 162.632 515.333 163.519C519.421 165.46 523.948 166.514 527.872 166.305C526.788 164.636 529.871 164.472 530.59 163.57C531.784 160.053 532.619 156.987 534.222 157.334C534.459 156.026 534.618 155.154 534.855 153.846C537.134 151.998 541.223 153.939 543.501 152.091C543.258 150.377 541.862 153.473 541.978 151.309C543.136 149.52 546.219 149.356 545.622 151.115C548.656 146.637 552.665 149.014 555.023 146.73C552.696 144.263 549.619 147.449 547.615 146.26C547.932 144.517 550.618 146.532 550.935 144.789C549.851 143.12 548.212 144.502 547.249 143.69C547.81 143.66 548.608 142.322 548.048 142.352C547.889 143.224 547.048 143.269 547.207 142.397C547.286 141.961 547.365 141.525 547.444 141.089C548.925 140.579 549.047 141.436 549.449 142.278C551.247 140.023 552.599 135.635 550.236 134.897C550.68 137.032 550.643 138.76 549.766 140.534C547.323 140.232 546.445 142.006 544.605 142.967C545.282 140.773 548.285 141.044 546.64 139.405C547.402 139.796 548.84 137.993 547.719 138.053C546.64 139.405 545.72 139.886 545.562 140.758C544.16 140.832 543.161 141.749 542.479 140.922C542.637 140.05 543.399 140.441 543.557 139.569C542.113 138.351 540.639 141.883 540.712 138.425C540.072 138.891 540.078 141.913 538.835 141.115C538.671 138.966 539.713 139.342 540.152 138.455C539.707 136.321 537.19 139.476 538.105 135.974C538.75 138.53 540.463 133.69 540.627 135.84C540.347 135.855 539.786 135.885 539.628 136.756C541.669 136.216 539.11 138.079 540.231 138.019C541.066 134.953 545.825 131.678 544.112 136.518C545.751 135.136 546.196 137.27 547.914 135.452C547.073 135.497 546.872 135.076 546.75 134.219C549.596 135.363 550.754 133.574 555.317 132.9C555.36 134.193 554.043 136.853 555.165 136.793C555.762 135.035 560.283 133.067 558.881 133.142C558.522 133.593 556.603 134.99 556.639 133.261C556.871 128.932 559.357 130.526 559.753 128.347C559.589 126.197 558.394 129.714 557.353 129.338C557.67 127.594 559.193 128.377 559.51 126.633C558.748 126.242 557.627 126.302 558.224 124.543C559.065 124.498 559.224 123.627 560.064 123.582C559.906 124.454 559.747 125.325 560.229 125.731C560.387 124.86 560.546 123.988 560.704 123.116C559.461 122.319 558.663 123.656 558.34 122.378C558.054 119.372 561.941 120.892 561.058 119.644C554.892 119.972 554.538 123.444 549.944 128.869C547.379 127.71 549.024 129.349 546.623 130.341C546.58 129.048 547.5 128.567 547.019 128.161C546.178 128.206 544.661 130.445 544.259 129.603C546.258 127.77 544.375 127.438 545.533 125.65C545.855 126.928 548.219 127.665 549.298 126.313C547.933 124.659 551.217 124.916 552.058 124.871C552.449 119.67 554.088 118.288 557.567 115.944C556.684 114.696 555.166 116.935 554.642 115.236C557.921 112.472 559.048 115.434 560.894 117.494C561.052 116.622 562.094 116.998 562.734 116.533C563.252 115.21 563.77 113.887 564.769 112.971C562.289 114.398 562.966 112.203 561.522 110.985C560.443 112.338 559.846 114.096 558.524 113.735C559.962 111.932 557.762 113.344 558.439 111.149C559.279 111.104 560.876 108.429 560.315 108.459C559.115 108.955 559.347 104.626 558.665 103.798C560.145 103.288 561.309 104.521 559.871 106.324C564.63 103.049 557.343 103.437 556.819 101.738C557.66 101.693 558.019 101.243 558.458 100.356C557.617 100.401 557.459 101.272 556.618 101.317C557.416 99.9796 558.653 97.7554 556.453 99.1675C557.892 97.3642 557.051 97.4089 557.167 95.2443C557.288 96.1012 562.534 96.2538 561.249 94.1637C562.931 94.0743 564.691 93.5489 564.935 95.2627C562.73 93.6533 564.819 97.4273 562.778 97.9676C561.937 98.0123 562.894 95.803 561.773 95.8626C561.614 96.7344 561.815 97.1554 561.937 98.0123C560.895 97.6361 557.453 98.2509 558.616 99.4841C559.975 98.1167 560.298 99.3946 562.418 98.4184C561.62 99.756 560.901 100.658 560.103 101.995C560.944 101.95 564.55 103.485 564.027 101.786C562.906 101.846 562.345 101.876 562.583 100.568C564.867 101.742 563.936 96.1793 565.538 96.5257C567.463 98.15 566.269 101.667 564.831 103.47C567.835 103.742 567.463 98.15 567.622 97.2782C567.664 98.571 571.064 96.6634 569.541 95.881C570.662 95.8214 571.783 95.7617 571.905 96.6186C572.021 94.454 570.541 94.9645 569.62 95.4451C569.218 94.6031 569.615 92.4236 568.932 91.5965C568.494 92.4832 566.294 93.8953 566.251 92.6025C569.054 92.4534 566.69 91.7158 568.567 89.0258C566.605 89.1302 568.646 88.5899 568.805 87.7181C566.642 87.4015 569.402 85.9595 569.439 84.2308C567.635 83.4634 567.921 86.47 566.721 86.9655C567.117 84.786 565.996 84.8457 566.752 82.2153C564.711 82.7556 564.662 78.4412 563.267 81.5373C562.664 80.2743 560.543 81.2505 561.22 79.0561C563.224 80.2445 566.106 79.6595 568.464 77.3756C568.348 79.5402 570.231 79.8717 570.987 77.2414C569.183 76.474 563.584 79.7937 565.857 74.9242C567.057 74.4286 565.022 77.9904 566.862 77.0291C566.777 74.4435 567.179 75.2855 568.501 75.6469C567.892 71.3624 566.74 76.1722 565.291 71.9325C565.607 70.1888 567.411 70.9563 567.606 68.3557C566.845 67.9646 565.723 68.0242 565.602 67.1673C569.209 68.7022 567.436 63.1845 570.72 63.4415C570.641 63.8774 569.123 66.1166 570.245 66.0569C570.281 64.3282 571.323 64.7045 571.439 62.5398C569.958 63.0503 569.197 62.6591 569.154 61.3663C568.917 62.674 567.795 62.7337 566.674 62.7933C566.833 61.9215 566.352 61.5154 566.589 60.2077C568.271 60.1182 571.75 57.7747 571.829 57.3388C568.868 58.3597 569.904 55.7144 569.941 53.9857C566.504 57.6221 566.98 55.0066 565.694 52.9166C568.735 51.4597 570.861 53.5051 573.78 51.1913C572.415 49.5372 573.78 51.1913 574.578 49.8538C574.535 48.561 572.616 49.9582 572.574 48.6654C573.414 48.6206 574.054 48.1549 574.493 47.2682C570.971 48.3189 567.772 50.6476 564.805 48.647C566.645 47.6857 567.169 49.3846 567.565 47.205C569.094 51.0089 570.521 43.1626 571.489 46.9963C571.118 41.404 565.92 45.5658 561.869 41.8961C566.713 41.2067 570.436 40.577 575.365 42.4732C575.127 43.7809 572.251 47.3874 573.329 46.035C574.81 45.5245 575.285 42.9091 576.565 41.9776C577.729 43.2108 575.133 46.8024 576.095 47.6146C577.893 45.3605 576.729 44.1273 577.363 40.6401C576.041 40.2787 575.444 42.0373 574.122 41.6759C575.56 39.8726 573.878 39.9621 573.915 38.2334C573.153 37.8422 570.954 39.2543 570.99 37.5256C571.271 37.5107 571.831 37.4809 571.99 36.6091C571.106 35.361 570.064 34.9847 568.505 35.9311C569.059 32.8797 569.456 30.7002 568.213 29.9029C567.536 32.0974 569.297 31.572 568.34 33.7814C567.78 33.8112 567.822 35.104 567.262 35.1338C567.579 33.3902 568.773 29.8731 567.208 27.798C567.213 30.8195 563.57 31.0133 563.089 30.6073C563.406 28.8636 565.812 30.894 565.849 29.1653C564.807 28.7891 564.045 28.3979 562.364 28.4874C562.497 35.3873 552.755 29.4303 555.484 32.7386C553.242 32.8579 551.64 32.5114 551.116 30.8125C551.677 30.7827 552.237 30.7529 552.676 29.8662C551.994 29.0391 550.915 30.3915 549.751 29.1584C549.075 31.3528 550.994 29.9556 550.677 31.6993C549.154 30.9169 548.916 32.2246 547.436 32.7351C547.99 29.6837 542.555 35.1532 541.508 31.7554C539.789 33.5736 540.234 35.7084 537.388 34.5647C537.553 36.7144 540.075 36.5802 539.198 38.3537C541.196 36.5206 544.84 36.3267 546.083 37.124C543.761 37.6792 540.398 37.8581 538.442 40.984C537.918 39.2851 536.961 41.4945 535.359 41.1481C535.914 38.0967 528.194 42.3927 526.506 39.4606C528.468 39.3562 530.79 38.801 531.429 38.3353C530.101 34.9524 525.184 39.0992 525.056 35.2208C523.661 38.3169 519.731 35.5041 518.415 38.1643C518.409 35.1428 515.411 37.8924 514.887 36.1935C513.809 37.546 515.052 38.3432 513.571 38.8537C511.012 40.7166 511.603 35.9366 510.165 37.7398C504.084 40.6535 496.596 40.6202 488.986 39.73C489.547 39.7002 490.388 39.6554 490.625 38.3477C489.023 38.0013 486.829 42.4349 485.623 39.9089C486.744 39.8493 487.865 39.7896 488.103 38.4819C482.784 41.7868 479.177 40.2519 475.015 41.7684C474.174 41.8131 475.131 39.6037 474.01 39.6634C470.89 41.5561 465.523 40.5466 462.476 38.9819C460.24 42.1228 456.505 36.7095 453.629 40.316C455.031 40.2415 455.353 41.5194 456.316 42.3315C453.836 43.7585 454.147 38.9934 452.63 41.2326C452.91 41.2176 454.275 42.8718 453.075 43.3674C452.709 40.7967 449.273 44.433 449.066 40.9905C450.546 40.48 452.149 40.8265 453.105 38.6171C447.622 39.7722 448.463 39.7275 446.025 42.4473C445.422 41.1843 444.143 42.1158 444.021 41.2589C444.74 40.3573 445.099 39.9064 445.818 39.0048C443.936 38.6733 442.022 43.092 440.255 40.5958C441.175 40.1152 442.619 41.3335 442.936 39.5898C439.616 41.0616 439.811 38.461 440.652 38.4163C439.61 38.04 438.653 40.2494 437.727 37.7085C437.288 38.5952 437.288 38.5952 435.93 39.9626C436.173 41.6764 439.811 38.461 439.536 41.4975C437.934 41.151 434.29 41.3449 433.973 43.0885C432.371 42.7421 427.564 41.7028 427.57 44.7243C428.088 43.4017 430.171 44.1542 429.653 45.4768C426.771 46.0618 422.446 45.4286 419.96 43.8341C415.28 46.6732 408.268 44.0245 404.709 46.8039C404.868 45.9321 405.227 45.4813 405.666 44.5946C401.102 45.269 397.501 46.7557 395.253 43.8535C394.376 45.6269 391.731 44.9042 390.373 46.2716C391.329 44.0622 390.129 44.5578 390.007 43.7009C390.568 43.6711 391.128 43.6412 391.567 42.7545C388.965 43.3246 387.436 39.5207 385.877 40.4671C386.918 40.8434 386.242 43.0378 386.565 44.3157C385.602 43.5036 385.803 43.9245 384.201 43.5781C383.287 47.0803 388.125 43.3693 388.289 45.5191C385.047 46.5549 381.118 43.7421 381.964 46.7189C379.643 47.2741 380.198 44.2228 379.515 43.3957C378.595 43.8763 377.151 42.6581 376.834 44.4017C378.437 44.7481 376.517 46.1453 377.041 47.8442C372.88 49.3607 367.268 46.6374 362.705 47.3119C361.584 47.3715 355.905 51.1272 358.781 47.5207C357.179 47.1742 352.097 49.1713 353.694 46.4963C351.695 48.3293 348.094 49.816 345.687 47.7856C346.808 47.7259 347.729 47.2453 348.167 46.3586C344.408 48.717 344.993 40.9154 342.958 44.4773C343.08 45.3342 345.2 44.358 344.243 46.5673C343.72 44.8684 340.32 46.7761 340.954 43.2888C345.438 43.0502 349.917 39.7901 352.445 42.6775C352.719 39.641 355.248 42.5284 355.443 39.9278C351.683 42.2863 343.787 38.3895 337.944 39.9954C338.505 39.9656 339.705 39.47 339.467 40.7778C334.422 41.0462 325.49 39.7946 321.926 39.5526C320.043 39.221 309.795 40.6296 307.986 36.8407C311.428 36.2258 314.596 38.6474 317.637 37.1906C311.306 35.3689 306.785 37.3362 304.495 33.1412C309.223 34.6164 314.268 34.348 318.874 34.9663C317.546 31.5834 310.545 34.9778 309.656 30.7082C313.78 30.9204 316.906 32.0492 320.148 31.0133C317.345 31.1625 314.817 28.2751 310.295 30.2424C306.963 25.6711 296.514 26.6587 290.238 32.1729C292.602 32.9106 299.316 26.5096 301.887 30.6898C299.523 29.9522 296.811 35.7084 293.326 35.0304C293.363 33.3017 295.087 34.5051 295.404 32.7614C294.442 31.9493 292.126 35.526 289.561 34.3674ZM307.705 36.8556C306.59 39.9368 305.701 35.6672 303.221 37.0942C304.617 33.9981 306.304 36.9301 307.705 36.8556ZM340.838 45.4535C336.84 49.1196 334.915 47.4953 329.511 48.2145C328.189 47.8532 330.51 47.298 331.071 47.2682C325.819 44.094 329.864 44.7422 333.551 45.8411C333.788 44.5334 333.228 44.5632 333.027 44.1423C334.185 42.3539 336.469 43.5274 337.95 43.0169C336.554 46.113 339.473 43.7993 340.838 45.4535ZM540.715 36.1145C539.838 37.8879 539.192 35.3322 538.235 37.5415C537.675 37.5713 538.193 36.2487 537.632 36.2785C538.388 33.6482 540.392 34.8366 540.715 36.1145ZM365.638 156.374C366.552 152.872 368.52 155.789 370.281 155.263C368.684 157.938 367.679 155.833 365.638 156.374ZM287.504 151.033C286.541 150.221 286.017 148.522 284.055 148.627C285.134 147.274 288.137 147.546 288.82 148.373C288.582 149.681 287.26 149.32 287.504 151.033ZM309.515 40.6446C307.236 42.4926 301.825 40.1903 306.59 39.9368C307.632 40.313 308.515 41.5611 309.515 40.6446ZM320.298 46.9779C320.055 45.2641 317.697 47.548 318.897 47.0524C311.854 49.1539 303.08 47.0306 296.348 44.3669C303.946 39.2141 310.33 48.3716 319.373 44.437C319.135 45.7447 320.414 44.8133 320.298 46.9779ZM318.13 43.6397C315.126 43.3679 313.524 43.0214 309.959 42.7794C310.678 41.8777 317.405 41.5198 318.13 43.6397ZM444.063 42.5517C444.465 43.3937 445.586 43.3341 446.427 43.2893C447.871 44.5076 444.465 43.3937 444.508 44.6865C444.191 46.4301 445.507 43.77 446.19 44.597C443.313 48.2036 441.705 44.8356 438.781 44.1278C440.907 46.1732 432.858 46.1697 431.896 45.3575C436.374 42.0974 440.018 41.9036 442.985 43.9042C442.826 44.776 442.345 44.3699 441.985 44.8207C441.827 45.6925 442.467 45.2268 442.668 45.6478C443.868 45.1522 443.905 43.4235 444.063 42.5517ZM562.339 36.2591C562.101 37.5669 560.181 38.964 560.937 36.3337C560.218 37.2353 559.779 38.1221 558.457 37.7607C559.414 35.5513 561.297 35.8829 562.339 36.2591ZM552.693 38.9307C553.729 36.2855 556.093 37.0231 558.415 36.4679C558.256 37.3397 557.495 36.9485 556.855 37.4143C556.696 38.2861 557.616 37.8054 558.098 38.2115C556.818 39.143 554.491 36.6767 552.693 38.9307ZM459.241 43.0393C457.961 43.9708 456.517 42.7525 454.238 44.6005C454.872 41.1133 457.559 43.1288 459.241 43.0393ZM362.991 50.3185C364.106 47.2373 371.32 50.3071 376.164 49.6177C380.167 48.973 383.244 45.7875 385.09 47.8477C383.018 53.1382 393.26 48.7081 397.544 48.0485C397.385 48.9203 396.904 48.5142 396.544 48.9651C396.307 50.2728 397.068 50.664 397.988 50.1833C395.551 52.9031 394.101 48.6634 391.426 52.6909C385.973 49.0958 380.264 57.6017 372.483 51.5403C371.362 51.5999 372.447 53.269 373.087 52.8032C372.928 53.6751 370.119 50.8026 371.606 53.3137C368.121 52.6357 361.949 49.9423 354.186 52.9454C355.222 50.3001 348.264 54.9873 346.339 53.3629C350.738 50.5387 357.105 50.6317 362.15 50.3633C361.785 47.7925 362.589 49.4765 362.991 50.3185ZM544.047 40.6858C543.371 42.8803 538.283 41.8558 538.442 40.984C541.324 40.399 541.726 41.241 544.047 40.6858ZM345.815 51.664C345.498 53.4076 343.615 53.0761 342.494 53.1358C343.293 51.7982 344.414 51.7386 345.815 51.664ZM399.67 50.0939C401.547 47.4039 406.634 48.4283 402.071 49.1027C401.151 49.5834 400.992 50.4552 399.67 50.0939ZM465.095 47.4764C465.851 44.8461 467.057 47.372 467.856 46.0345C472.06 45.8108 469.178 46.3958 467.057 47.372C466.015 46.9958 466.296 46.9809 465.095 47.4764ZM491.283 46.9466C490.722 46.9764 490.564 47.8482 490.405 48.72C488.961 47.5018 486.28 48.5078 484.641 49.8901C483.557 48.221 483.996 47.3343 481.997 49.1674C482.235 47.8596 482.515 47.8447 482.954 46.958C482.034 47.4386 476.952 49.4358 477.507 46.3844C476.349 48.1728 473.869 49.5998 474.265 47.4203C472.267 49.2534 469.866 50.2445 469.707 51.1163C468.903 49.4323 467.745 51.2207 467.861 49.056C463.737 48.8438 462.701 51.4891 460.855 49.4288C460.056 50.7664 452.245 49.4552 456.529 48.7956C457.65 48.7359 457.607 47.4431 458.21 48.7061C458.771 48.6763 458.649 47.8194 459.009 47.3686C460.532 48.1509 464.651 45.3416 464.376 48.3781C466.137 47.8527 467.338 47.3571 468.702 49.0113C469.421 48.1097 470.743 48.471 470.859 46.3064C477.105 45.5424 482.15 45.274 486.158 47.6509C489.674 43.5786 494.926 46.7527 498.929 46.1081C496.37 47.971 494.366 46.7825 491.526 48.6604C493.001 45.1284 491.886 48.2096 491.283 46.9466ZM560.388 42.4066C560.272 44.5712 558.749 43.7889 557.75 44.7054C557.866 42.5408 558.987 42.4811 560.388 42.4066ZM389.507 54.0881C390.189 54.9152 387.307 55.5002 386.747 55.53C386.673 58.9875 388.428 55.4406 389.031 56.7035C389.074 57.9964 388.513 58.0262 387.953 58.056C388.477 59.7549 391.237 58.313 392.437 57.8174C390.761 60.9284 393.918 57.307 394.441 59.0058C394.722 58.9909 395.161 58.1042 395.441 58.0893C394.198 57.292 395.715 55.0529 397.318 55.3993C394.96 57.6832 398.28 56.2115 399.401 56.1518C398.999 55.3098 399.359 54.859 400.2 54.8143C399.962 56.122 399.401 56.1518 399.164 57.4595C396.318 56.3158 395.727 61.0959 392.601 59.9671C392.802 60.3881 392.644 61.2599 393.204 61.2301C390.28 60.5223 387.843 63.2422 384.796 61.6775C384.955 60.8056 385.436 61.2117 385.796 60.7609C385.595 60.3399 385.832 59.0322 385.351 58.6261C386.027 56.4317 386.673 58.9875 387.593 58.5068C387.27 57.2289 386.149 57.2886 384.748 57.3631C384.785 55.6344 385.826 56.0107 386.545 55.109C385.382 53.8759 382.183 56.2045 379.819 55.4669C379.66 56.3387 380.581 55.8581 381.062 56.2642C380.105 58.4735 377.619 56.879 376.297 56.5176C376.736 55.6309 379.618 55.0459 377.095 55.1801C380.093 52.4305 383.785 56.551 385.9 52.5532C385.424 55.1687 387.386 55.0643 389.507 54.0881ZM399.328 59.6093C398.968 60.0601 398.53 60.9468 398.091 61.8335C397.25 61.8783 396.69 61.9081 395.849 61.9528C395.69 62.8246 396.33 62.3589 396.531 62.7799C396.373 63.6517 395.891 63.2456 395.532 63.6965C395.574 64.9893 397.938 65.7269 399.017 64.3744C400.503 66.8855 395.976 65.8313 395.86 67.9959C395.257 66.7329 395.775 65.4103 392.613 66.0102C392.851 64.7025 396.013 64.1025 393.85 63.7859C394.21 63.3351 394.849 62.8694 395.489 62.4036C393.083 60.3732 396.891 62.3291 396.123 58.9164C395.769 62.3887 401.247 58.2121 399.328 59.6093ZM402.898 62.8728C402.74 63.7447 402.258 63.3386 401.899 63.7894C401.74 64.6612 403.142 64.5867 403.3 63.7148C404.464 64.948 401.423 66.4048 400.381 66.0286C400.144 67.3363 401.984 66.375 402.465 66.7811C401.429 69.4264 399.382 66.9451 397.463 68.3423C398.779 65.6821 400.778 63.849 402.898 62.8728ZM396.191 52.4374C396.197 55.4589 395.874 54.181 394.917 56.3904C393.436 56.9009 392.474 56.0887 391.432 55.7124C393.071 54.3302 395.996 55.0379 395.228 51.6252C396.709 51.1148 397.671 51.927 398.713 52.3032C398.195 53.6258 397.397 54.9634 396.556 55.0081C396.514 53.7153 396.952 52.8286 397.793 52.7839C397.872 52.3479 396.751 52.4076 396.191 52.4374ZM367.651 58.2727C366.884 54.86 370.131 56.8457 370.893 57.2369C369.735 59.0252 368.529 56.4993 367.651 58.2727ZM354.691 65.4376C355.648 63.2282 355.008 63.694 355.886 61.9205C355.167 62.8221 353.564 62.4757 352.084 62.9862C354.32 59.8454 356.087 62.3415 359.249 61.7416C359.566 59.9979 356.288 62.7625 357.403 59.6813C359.164 59.156 360.925 58.6306 362.405 58.1201C362.046 58.5709 361.607 59.4577 361.449 60.3295C363.088 58.9472 363.843 56.3168 366.567 56.6036C366.768 57.0246 366.89 57.8815 366.731 58.7534C373.177 58.4104 374.78 58.7568 382.268 58.7901C380.671 61.4652 378.789 61.1337 376.504 59.9602C375.943 59.99 375.986 61.2828 375.547 62.1695C374.743 60.4855 372.586 63.1905 370.783 62.423C371.142 61.9722 371.581 61.0855 371.739 60.2137C369.217 60.3479 366.694 60.4821 364.172 60.6163C360.54 66.8532 358.603 59.1858 354.691 65.4376ZM364.013 61.4881C370.338 60.2882 364.342 65.7875 364.013 61.4881V61.4881ZM292.623 64.8546C295.261 62.5557 297.107 64.616 300.629 63.5652C301.391 63.9564 301.074 65.7 300.471 64.437C297.711 65.879 295.267 65.5773 292.623 64.8546ZM278.049 65.63C277.811 66.9377 277.171 67.4034 275.648 66.6211C277.245 63.946 280.011 65.5256 280.815 67.2096C280.017 68.5471 278.091 66.9228 278.049 65.63ZM339.709 62.3495C342.67 61.3285 347.033 60.2331 348.16 63.1949C346.557 62.8485 344.315 62.9678 341.835 64.3948C342.03 61.7943 342.152 62.6512 339.709 62.3495ZM348.879 62.2933C349.037 61.4215 352.839 60.3558 351.803 63.0011C350.201 62.6546 350.481 62.6397 348.879 62.2933ZM314.247 64.9992C313.01 67.2235 312.486 65.5246 310.445 66.0649C311.883 64.2616 313.284 64.187 314.247 64.9992ZM282.216 67.135C283.654 65.3317 284.58 67.8726 286.701 66.8964C286.822 67.7533 282.021 69.7355 282.216 67.135ZM343.157 64.7561C342.999 65.628 342.92 66.0639 342.761 66.9357C342.322 67.8224 340.44 67.4909 340.757 65.7473C341.798 66.1235 342.115 64.3799 343.157 64.7561ZM354.21 65.0315C353.533 67.226 351.005 64.3386 350.968 66.0674C349.884 64.3983 354.246 63.3028 354.21 65.0315ZM335.992 66.0007C336.553 65.9709 336.114 66.8577 335.834 66.8726C336.035 67.2936 336.516 67.6996 336.997 68.1057C336.68 69.8494 335.596 68.1803 335.754 67.3085C333.195 69.1714 330.99 67.562 330.149 67.6067C326.383 66.9436 331.069 67.1261 333.232 67.4427C333.951 66.541 335.273 66.9024 335.992 66.0007ZM347.763 65.3745C347.605 66.2463 347.526 66.6822 346.965 66.712C346.807 67.5838 347.727 67.1032 348.208 67.5093C348.05 68.3811 347.008 68.0048 346.368 68.4706C347.325 66.2612 346.204 66.3208 345.083 66.3805C343.919 65.1473 346.923 65.4192 347.763 65.3745ZM339.276 66.2577C340.397 66.1981 339.44 68.4074 340.281 68.3627C340.043 69.6704 338.24 68.903 337.6 69.3687C337.917 67.6251 339.038 67.5654 339.276 66.2577ZM385.363 64.6692C386.24 62.8957 388.525 64.0692 390.005 63.5588C391.169 64.7919 387.763 63.6781 387.928 65.8278C387.446 65.4217 388.044 63.6631 386.484 64.6095C387.647 65.8427 386.526 65.9023 384.845 65.9918C385.003 65.12 385.484 65.5261 385.844 65.0752C385.923 64.6393 385.643 64.6543 385.363 64.6692ZM380.878 64.9077C376.357 66.875 375.151 64.3491 380.878 64.9077V64.9077ZM378.843 68.4696C379.081 67.1618 380.604 67.9442 381.244 67.4785C381.164 67.9144 380.884 67.9293 380.525 68.3801C380.366 69.2519 381.006 68.7862 381.207 69.2072C382.529 69.5685 380.208 70.1237 379.647 70.1535C379.568 70.5895 379.848 70.5745 380.049 70.9955C379.172 72.769 379.684 68.4248 378.843 68.4696ZM381.926 68.3055C383.163 66.0813 384.089 68.6222 385.569 68.1117C384.29 69.0431 383.608 68.2161 381.926 68.3055ZM560.143 60.5507C561.624 60.0402 560.746 61.8136 560.307 62.7004C561.386 61.3479 562.629 62.1452 562.227 61.3032C562.745 59.9806 563.068 61.2584 563.628 61.2286C563.549 61.6645 563.47 62.1004 563.39 62.5364C560.112 65.3009 560.429 63.5573 557.224 62.8644C555.86 61.2102 560.429 63.5573 560.143 60.5507ZM560.074 86.8875C560.232 86.0157 561.274 86.392 561.914 85.9262C561.676 87.234 562.237 87.2041 561.999 88.5119C560.518 89.0223 561.195 86.8279 560.074 86.8875ZM549.69 101.254C548.167 100.472 549.849 100.382 550.166 98.6386C551.488 99 550.927 99.0298 552.408 98.5193C551.372 101.165 550.123 97.3458 549.69 101.254ZM549.215 103.87C549.97 101.239 550.86 105.509 551.615 102.878C552.779 104.112 550.177 104.682 549.537 105.147C549.696 104.276 549.495 103.855 549.215 103.87ZM556.751 108.217C556.513 109.525 553.711 109.674 554.667 107.465C555.387 106.563 555.709 107.841 556.751 108.217ZM554.32 113.959C554.119 113.538 553.637 113.131 553.077 113.161C553.674 111.403 554.996 111.764 555.392 109.585C555.593 110.006 556.075 110.412 556.233 109.54C557.397 110.773 554.034 110.952 554.32 113.959ZM549.598 115.505C549.756 114.633 550.237 115.039 550.158 115.475C552.516 113.191 544.431 114.916 549.153 113.37C549.994 113.325 550.152 112.453 550.993 112.409C551.395 113.251 551.797 114.093 552.199 114.935C551.882 116.678 549.799 115.926 549.598 115.505ZM349.135 132.645C349.89 130.015 347.051 131.893 345.046 130.704C346.484 128.901 347.691 131.427 349.689 129.594C349.817 133.472 350.457 133.007 349.135 132.645ZM370.362 134.97C367.76 135.54 366.877 134.292 364.354 134.426C366.274 133.029 370.478 132.805 370.362 134.97ZM372.842 133.543C373.683 133.498 374.523 133.453 375.364 133.408C375.169 136.009 373.524 134.37 372.604 134.85C372.683 134.414 372.763 133.978 372.842 133.543ZM371.806 136.188C372.123 134.444 376.613 137.227 377.046 133.319C378.325 132.387 379.331 134.492 379.568 133.185C380.732 134.418 378.855 137.108 377.533 136.746C377.375 137.618 378.014 137.153 378.215 137.574C378.977 137.965 377.777 138.46 377.216 138.49C376.814 137.648 376.972 136.776 377.692 135.875C376.972 136.776 373.81 137.376 371.806 136.188ZM405.116 133.121C405 135.285 407.114 131.287 406.279 134.354C400.917 136.366 394.624 132.815 390.706 136.046C390.669 137.774 393.186 134.619 393.63 136.753C392.631 137.67 390.511 138.646 387.787 138.359C391.547 136.001 387.184 137.096 385.18 135.908C386.538 134.541 386.459 134.976 387.056 133.218C393.984 133.281 400.796 135.509 408.918 132.055C408.68 133.363 409.241 133.333 409.003 134.64C407.717 132.55 407.596 131.694 405.116 133.121ZM540.25 127.226C541.091 127.181 541.133 128.474 541.651 127.152C542.815 128.385 539.653 128.985 539.013 129.45C539.171 128.579 539.251 128.143 539.409 127.271C539.97 127.241 539.531 128.128 539.732 128.549C539.732 128.549 539.811 128.113 540.25 127.226ZM272.796 144.909C273.795 143.992 274.478 144.819 276.72 144.7C275.684 147.345 273.758 145.721 272.796 144.909ZM289.612 144.014C290.331 143.113 292.092 142.587 291.897 145.188C290.776 145.247 290.374 144.405 289.612 144.014ZM390.23 138.661C389.871 139.112 389.432 139.999 389.993 139.969C389.834 140.841 386.069 140.178 386.672 141.441C386.075 143.199 385.429 140.643 384.149 141.575C384.704 138.523 388.311 140.058 390.23 138.661ZM396.518 139.19C394.8 141.008 395.397 139.25 395.482 141.835C396.804 142.197 397.322 140.874 398.163 140.829C395.646 143.985 394.239 141.038 390.998 142.074C391.674 139.879 391.717 141.172 392.838 141.113C393.155 139.369 391.193 139.473 390.474 140.375C391.272 139.037 394.636 138.858 396.518 139.19ZM299.464 144.785C297.825 146.167 298.788 146.98 300.47 146.89C298.593 149.58 296.302 145.385 295.863 146.272C294.98 145.024 298.581 143.537 299.464 144.785ZM301.707 144.666C303.431 145.869 300.829 146.439 300.147 145.612C302.584 142.892 307.154 145.239 308.835 145.15C306.556 146.998 303.589 144.997 301.707 144.666ZM404.926 138.743C403.689 140.967 401.965 139.764 399.363 140.334C401.441 138.065 402.526 139.734 404.926 138.743ZM368.588 149.31C366.705 148.978 366.827 149.835 364.262 148.677C364.664 149.519 365.425 149.91 363.463 150.014C363.945 150.42 362.988 152.629 364.469 152.119C362.19 153.967 362.86 148.751 359.016 148.524C358.857 149.396 359.777 148.915 360.259 149.321C361.581 149.683 359.259 150.238 358.699 150.268C358.9 150.689 359.381 151.095 359.862 151.501C356.938 150.793 354.976 150.897 351.85 149.769C352.728 147.995 357.011 147.335 358.016 149.44C358.656 148.975 357.895 148.584 358.413 147.261C358.894 147.667 359.375 148.073 360.496 148.013C362.135 146.631 361.532 145.368 361.929 143.189C362.489 143.159 362.769 143.144 362.928 142.272C363.171 143.986 363.689 142.663 365.292 143.01C363.933 144.377 364.018 146.963 362.812 144.437C362.824 150.48 369.38 144.951 371.189 148.74C369.106 147.987 368.63 150.603 366.869 151.128C367.387 149.805 367.747 149.354 368.588 149.31ZM347.957 145.227C349.274 142.567 351.284 146.777 353.563 144.929C353.008 147.98 349.84 145.559 349.164 147.753C348.439 145.633 349.56 145.573 347.957 145.227ZM366.773 142.499C367.735 143.311 368.734 142.395 370.258 143.177C369.179 144.53 368.18 145.446 366.778 145.521C367.016 144.213 366.535 143.807 366.773 142.499ZM380.189 143.512C380.993 145.196 384.033 143.739 385.636 144.086C384.637 145.002 382.157 146.429 381.554 145.166C380.432 145.226 382.358 146.85 380.475 146.519C381.681 149.045 385.039 145.844 386.403 147.499C381.803 149.902 379.719 149.149 373.913 149.026C376.07 146.322 377.556 148.833 379.756 147.42C380.152 145.241 378.032 146.217 378.708 144.023C376.667 144.563 376.186 144.157 373.986 145.569C375.619 141.165 379.391 144.85 381.188 142.596C382.468 141.664 382.51 142.957 380.189 143.512ZM407.979 143.329C409.295 140.669 413.023 143.06 414.62 140.385C414.462 141.257 414.382 141.693 414.943 141.663C413.663 142.595 409.258 142.397 407.979 143.329ZM309.895 154.591C311.412 152.352 313.623 156.983 317.346 156.353C316.468 158.126 314.184 156.953 313.422 156.562C312.782 157.027 313.544 157.419 313.026 158.741C310.704 159.296 309.943 158.905 307.42 159.039C308.938 156.8 309.462 158.499 311.503 157.959C311.058 155.824 306.178 158.242 308.292 154.244C305.977 157.821 301.566 154.602 302.602 151.957C302.041 151.987 301.48 152.017 300.92 152.046C301.121 152.467 301.602 152.874 302.084 153.28C300.847 155.504 299.921 152.963 299.159 152.572C299.318 151.7 299.799 152.106 300.158 151.655C299.074 149.986 296.192 150.571 295.028 149.338C299.068 146.965 303.284 152.784 307.171 154.304C307.646 151.689 304.527 153.581 303.924 152.318C305.484 151.372 309.17 152.471 309.895 154.591ZM325.456 146.856C324.695 146.465 324.098 148.223 324.658 148.193C323.22 149.997 317.487 146.416 317.414 149.874C316.536 151.647 315.007 147.843 316.366 146.476C316.335 151.226 321.527 144.043 321.734 147.486C325.731 143.819 328.503 148.421 332.664 146.904C330.507 149.609 328.101 147.579 324.859 148.614C324.658 148.193 325.298 147.728 325.456 146.856ZM347.72 146.535C348.682 147.347 345.398 147.09 344.96 147.977C344.039 148.457 344.198 147.585 344.356 146.714C338.471 147.027 342.194 146.397 345.435 145.361C346.556 145.302 345.118 147.105 347.72 146.535ZM357.968 145.126C357.091 146.9 355.086 145.711 353.886 146.207C355.044 144.418 357.005 144.314 357.968 145.126ZM394.489 145.773C395.086 144.015 392.448 146.314 393.484 143.668C394.647 144.901 396.164 142.662 397.249 144.331C395.969 145.263 394.891 146.615 394.013 148.389C393.69 147.111 391.57 148.087 391.966 145.907C394.647 144.901 392.813 148.884 394.489 145.773ZM397.889 143.866C399.491 144.212 402.172 143.206 402.257 145.792C400.734 145.009 398.053 146.015 397.889 143.866ZM336.917 150.995C342.918 148.517 345.642 148.804 350.327 148.986C349.413 152.488 348.408 150.383 346.007 151.374C348.524 148.219 338.281 152.649 336.917 150.995ZM317.06 153.346C316.341 154.248 311.698 155.358 312.454 152.728C314.495 152.188 315.336 152.143 317.06 153.346ZM382.443 149.436C382.369 152.893 379.561 150.021 379.286 153.057C378.683 151.794 377.361 151.433 375.6 151.958C377.636 148.397 380.444 151.269 382.443 149.436ZM407.71 149.387C407.472 150.695 403.39 151.775 403.226 149.625C405.23 150.814 406.546 148.154 407.71 149.387ZM389.693 150.777C390.132 149.89 393.934 148.825 393.178 151.455C391.417 151.98 390.735 151.153 389.693 150.777ZM387.219 155.226C386.622 156.984 384.617 155.796 383.417 156.291C384.532 153.21 385.099 156.202 387.219 155.226ZM520.921 154.156C521.719 152.818 524.443 153.105 524.845 153.947C524.047 155.285 521.323 154.998 520.921 154.156ZM507.791 156.15C505.11 157.156 501.667 157.77 499.827 158.732C501.704 156.042 506.469 155.788 507.791 156.15ZM563.487 71.165C566.089 70.5949 566.369 70.58 567.015 73.1358C567.929 69.6336 564.444 68.9557 563.487 71.165ZM344.806 26.6796C348.687 25.178 352.336 28.0057 355.694 24.8053C350.49 25.9455 347.925 24.7869 344.806 26.6796ZM330.883 33.0323C328.805 35.3013 324.955 32.0527 321.872 32.2167C321.835 33.9454 321.597 35.2531 323.078 34.7427C324.352 30.7897 329.932 38.2632 330.883 33.0323ZM368.086 34.5066C372.65 33.8321 366.88 31.9806 366.404 34.596C367.763 33.2287 366.965 34.5662 368.086 34.5066ZM332.497 39.4218C333.813 36.7617 337.822 39.1385 339.139 36.4783C337.14 38.3114 333.649 34.6119 333.692 35.9047C334.855 37.1379 330.895 39.0754 332.497 39.4218ZM489.541 36.6786C488.499 36.3024 485.331 33.8808 483.052 35.7288C485.093 35.1885 487.701 37.6399 489.541 36.6786ZM357.252 43.7168C356.972 43.7317 356.411 43.7615 356.57 42.8897C356.85 42.8748 357.41 42.845 357.569 41.9732C356.289 42.9046 354.285 41.7162 354.888 42.9792C355.29 43.8212 358.135 44.9649 357.252 43.7168ZM431.128 41.9448C431.768 41.4791 432.127 41.0283 432.365 39.7205C431.403 38.9084 431.165 40.2161 430.921 38.5023C429.843 39.8548 428.24 39.5083 427.765 42.1238C429.166 42.0492 430.842 38.9382 431.847 41.0432C431.287 41.073 430.647 41.5387 431.128 41.9448ZM484.057 37.8338C487.78 37.204 478.367 35.5464 479.53 36.7795C480.773 37.5768 483.095 37.0216 484.057 37.8338ZM361.261 46.0936C361.298 44.3649 363.144 46.4252 363.18 44.6965C362.54 45.1622 359.854 43.1467 360.256 43.9887C361.017 44.3798 360.061 46.5892 361.261 46.0936ZM413.794 44.1621C414.994 43.6666 416.755 43.1412 417.834 41.7887C416.913 42.2694 415.189 41.066 414.592 42.8246C415.153 42.7948 414.233 43.2754 413.794 44.1621ZM503.64 38.5187C502.762 40.2921 498.912 37.0435 499.716 38.7275C500.398 39.5545 504.005 41.0894 503.64 38.5187ZM359.889 61.2758C366.377 62.2257 361.406 59.0367 359.889 61.2758V61.2758ZM267.294 74.4043C267.136 75.2761 266.374 74.8849 266.216 75.7567C267.976 75.2313 268.22 76.9452 269.457 74.7209C269.177 74.7358 268.897 74.7507 269.055 73.8789C267.495 74.8253 268.939 76.0435 267.294 74.4043ZM573.126 65.4719C572.444 64.6448 572.444 64.6448 572.407 66.3735C571.847 66.4034 570.647 66.8989 570.884 65.5912C571.043 64.7194 571.402 64.2685 571.841 63.3818C571.281 63.4116 571.08 62.9906 570.598 62.5846C570.964 65.1553 568.685 67.0033 569.251 69.995C569.769 68.6723 570.165 66.4928 570.805 66.0271C570.768 67.7558 573.169 66.7647 573.126 65.4719ZM255.776 102.645C255.855 102.209 256.215 101.759 256.775 101.729C256.934 100.857 256.971 99.1282 257.811 99.0835C257.056 101.714 259.451 97.7012 260.291 97.6565C257.367 96.9487 255.411 100.075 255.776 102.645ZM563.373 116.067C564.415 116.443 565.177 116.834 565.219 118.127C565.061 118.999 564.902 119.871 564.744 120.743C564.464 120.758 563.379 119.088 563.062 120.832C564.585 121.614 563.866 122.516 562.587 123.448C565.347 122.006 565.475 125.884 563.957 128.123C565.517 127.177 564.92 128.935 565.401 129.342C567.034 124.938 565.712 124.576 566.145 120.668C566.986 120.623 566.828 121.495 567.668 121.45C567.742 117.993 564.58 118.593 565.372 114.234C565.652 114.219 566.012 113.768 565.531 113.362C565.293 114.67 564.172 114.729 563.373 116.067ZM253.811 142.465C251.849 142.57 253.847 140.737 254.207 140.286C252.489 142.104 252.081 138.241 250.722 139.608C251.684 140.42 253.335 145.081 253.811 142.465ZM283.756 159.435C286.077 158.88 283.354 158.593 283.591 157.285C278.224 156.276 272.966 150.08 267.488 154.257C272.301 158.318 279.144 155.795 283.756 159.435ZM305.872 166.029C303.825 163.548 295.253 161.845 291.487 161.182C295.618 164.416 300.663 164.148 305.872 166.029ZM557.515 151.346C558.192 149.151 555.992 150.563 556.748 147.933C554.987 148.458 554.505 148.052 554.067 148.939C555.31 149.736 556.193 150.984 557.515 151.346ZM487.976 159.794C489.896 158.397 489.384 162.741 490.901 160.502C488.616 159.328 493.941 159.045 494.459 157.722C492.498 157.827 488.616 159.328 487.976 159.794ZM537.297 174.006C538.418 173.946 537.461 176.156 538.302 176.111C539.661 174.743 541.903 174.624 542.86 172.415C540.581 174.263 538.778 173.495 537.297 174.006Z" fill="white"/>
<path opacity="0.25" d="M200.178 96.0518C200.591 97.0683 204.479 95.3598 204.893 96.3763C204.766 95.9672 200.878 97.6758 200.178 96.0518ZM193.631 96.47C195.749 96.3347 196.773 97.1037 199.407 96.101C197.675 96.2117 195.303 95.5289 193.631 96.47ZM188.818 96.7776C190.743 96.6546 192.283 96.5561 193.504 96.061C192.03 95.738 189.526 95.8979 188.818 96.7776ZM198.773 94.0556C195.049 94.7107 188.507 93.8772 184.811 95.5734C188.502 95.129 193.828 95.2059 198.773 94.0556ZM53.2151 102.104C52.7031 101.719 51.0644 102.45 50.0689 102.722C48.9464 102.585 49.5854 103.379 50.3884 103.119C52.5064 102.983 54.7227 102.216 55.8779 102.142C54.9808 101.782 55.5912 101.535 56.0419 101.089C55.4315 101.336 54.1821 100.79 53.8584 101.645C54.0509 101.633 54.436 101.609 54.3704 102.03C53.8584 101.645 53.4405 101.881 53.2151 102.104ZM64.6735 100.746C63.7108 100.807 62.1377 101.116 61.6584 100.521C61.2363 102.008 65.5706 101.106 64.6735 100.746ZM189.351 90.903C186.045 91.3228 184.636 90.5785 181.776 91.8041C184.763 90.9875 186.905 93.1451 189.351 90.903ZM39.3319 99.4447C40.7125 99.1479 40.9665 99.966 41.9292 99.9045C42.1259 98.6404 45.0098 99.7077 45.305 97.8115C42.8633 98.8019 41.1632 98.7019 39.3319 99.4447ZM103.834 95.3237C101.457 95.8927 99.3765 94.5655 97.7991 96.1264C99.5648 95.805 103.543 95.9681 103.834 95.3237ZM179.666 89.4358C179.183 90.0925 177.422 89.162 177.868 89.9679C178.061 89.9556 178.446 89.931 178.38 90.3523C178.188 90.3646 177.995 90.377 177.929 90.7983C178.7 90.7491 178.605 90.1294 179.085 90.7245C179.376 90.0802 179.601 89.8572 179.666 89.4358ZM53.4859 97.9146C52.9739 97.5302 50.5364 97.2687 50.1471 98.5451C51.3351 98.2606 52.519 99.2279 53.4859 97.9146ZM83.0146 94.3593C82.5967 94.5946 81.5398 94.0364 81.6012 94.8668C82.4042 94.6069 82.5269 96.2678 83.2685 95.1775C83.1088 94.9791 82.949 94.7807 83.0146 94.3593ZM184.099 87.9011C182.977 87.7642 181.821 87.838 180.924 87.4781C180.789 89.5727 183.648 88.347 184.099 87.9011ZM149.376 90.5367C150.531 90.4629 150.851 90.8596 151.879 90.3768C151.687 90.3891 151.301 90.4137 151.367 89.9923C151.85 89.3356 154.64 89.7832 154.546 89.1634C151.883 89.125 151.371 88.7405 149.376 90.5367ZM192.059 86.9753C193.022 86.9138 192.89 87.7566 194.079 87.4721C194.177 86.84 194.914 87.0015 194.853 86.171C193.857 86.4432 192.895 86.5047 192.059 86.9753ZM137.184 90.4812C136.222 90.5427 134.94 90.2075 134.583 91.2732C135.386 91.0133 137.147 91.9437 137.184 90.4812ZM60.8437 94.7329C59.9466 94.373 60.0079 95.2034 59.5901 95.4387C59.6556 95.0174 59.0124 95.4756 58.9468 95.897C59.3647 95.6617 60.4216 96.22 60.5528 95.3772C59.9751 95.4141 60.5856 95.1665 60.8437 94.7329ZM166.004 87.8056C168.315 87.658 170.621 88.7622 172.452 88.0194C172.104 86.5815 167.258 87.0997 166.004 87.8056ZM141.617 88.9465C141.293 89.8015 139.725 88.8588 139.72 90.1106C140.331 89.863 142.449 89.7277 141.617 88.9465ZM181.568 87.0198C182.37 86.76 183.812 87.2936 184.329 86.4263C183.751 86.4632 182.661 86.1156 181.568 87.0198ZM98.6803 91.6897C97.7176 91.7512 96.5623 91.825 96.0789 92.4817C97.2013 92.6186 98.1968 92.3464 98.6803 91.6897ZM238.487 76.4998C237.618 77.1811 237.205 76.1645 236.656 77.2426C236.848 77.2303 237.233 77.2057 237.168 77.627C236.975 77.6393 236.783 77.6516 236.717 78.073C237.68 78.0115 238.003 77.1565 238.487 76.4998ZM25.8961 87.7877C26.5679 88.3705 28.3293 89.3009 29.3904 88.6074C28.2679 88.4705 26.7646 87.1064 25.8961 87.7877ZM237.189 71.368C235.968 71.8632 234.85 70.4745 233.915 71.5771C234.813 71.937 236.414 72.669 237.189 71.368ZM251.253 58.1625C250.258 58.4347 249.582 59.1037 248.939 59.562C250.094 59.4882 250.577 58.8315 251.253 58.1625ZM244.748 55.8665C243.753 56.1387 243.02 54.7254 242.311 55.605C242.856 55.7788 244.039 56.7461 244.748 55.8665ZM249.452 50.1426C248.644 51.6543 246.592 51.3683 245.498 52.2725C247.231 52.1618 249.607 51.5928 249.452 50.1426ZM32.7562 60.8584C32.8175 61.6888 30.9493 63.8941 32.2971 63.808C32.0759 62.7792 33.4279 61.4412 32.7562 60.8584ZM247.666 46.9193C247.158 45.283 243.819 45.9135 243.045 47.2145C244.552 47.3268 246.06 47.439 247.666 46.9193ZM33.85 59.9541C34.3335 59.2975 33.6945 58.5039 33.3708 59.359C34.3335 59.2975 32.4039 60.6723 33.5591 60.5985C33.6247 60.1771 35.5829 59.8434 33.85 59.9541ZM243.602 43.6328C241.423 42.9377 240.329 43.842 238.277 43.5559C238.625 44.9938 242.123 44.5617 243.602 43.6328ZM35.4526 50.8823C35.0675 50.907 34.9078 50.7086 34.5555 50.5225C34.6496 51.1422 33.8753 52.4433 34.8708 52.1711C34.9363 51.7497 35.1945 51.316 35.4526 50.8823ZM234.939 34.3826C236.061 34.5195 237.151 34.867 238.597 34.1489C236.864 34.2596 236.291 33.0447 234.939 34.3826ZM178.832 32.3353C178.283 33.4134 181.011 33.0304 181.269 32.5968C179.889 32.8936 180.02 32.0508 178.832 32.3353ZM193.15 29.7518C199.438 29.7673 191.454 28.4 190.134 29.5273C191.13 29.2551 191.994 29.8256 193.15 29.7518ZM49.5174 37.6769C49.0382 37.0818 48.4891 38.1598 48.0427 37.3539C47.9443 37.986 48.0713 38.3951 48.4236 38.5812C48.5219 37.9491 49.4191 38.309 49.5174 37.6769ZM195.337 27.9433C194.567 27.9925 192.646 26.8637 191.167 27.7926C192.74 27.4835 194.305 29.678 195.337 27.9433ZM50.7467 34.6781C49.5586 34.9626 48.3706 35.2471 47.8543 36.1144C49.4931 35.384 50.1321 36.1775 50.7467 34.6781ZM109.439 31.1368C111.205 30.8154 113.61 31.2876 114.896 30.371C113.097 30.9031 110.693 30.431 109.439 31.1368ZM79.2429 32.8575C80.2056 32.796 80.4923 33.4034 81.6804 33.1189C82.0696 31.8425 79.501 32.4238 79.2429 32.8575ZM197.883 100.996C198.94 101.554 201.119 102.249 202.598 101.32C201.058 101.419 199.17 100.079 197.883 100.996ZM225.667 91.503C225.602 91.9244 225.376 92.1474 225.118 92.581C226.437 91.4538 229.584 90.8356 229.395 89.5961C229.33 90.0175 228.945 90.0421 228.367 90.079C228.986 87.3277 225.188 90.9078 223.877 89.5315C224.684 88.0198 227.408 88.8887 228.375 87.5753C226.643 87.6861 223.365 89.147 221.444 88.0182C224.209 86.1728 228.027 86.1374 230.272 86.4112C230.887 84.9118 235.057 85.0625 234.865 85.0748C234.963 84.4428 234.127 84.9134 234 84.5043C235.446 83.7861 236.7 83.0803 237.474 81.7792C236.545 81.6301 236.733 82.8696 235.803 82.7204C236.737 81.6178 236.319 81.853 235.647 81.2702C236.004 80.2045 237.708 79.0526 237.229 78.4575C236.84 79.7339 233.407 79.7446 232.735 79.1618C234.628 79.2494 235.402 77.9484 236.176 76.6474C234.861 76.5228 235.341 77.118 234.923 77.3533C234.378 77.1795 233.382 77.4517 233.096 76.8442C234.382 75.9277 236.627 76.2014 237.594 74.8881C238.364 74.8389 237.815 75.9169 238.393 75.88C238.876 75.2234 241.219 74.8651 240.773 74.0592C240.322 74.5052 238.491 75.248 238.012 74.6528C238.462 74.2069 239.425 74.1453 239.909 73.4887C238.467 72.955 235.55 72.0984 234.137 72.6059C234.714 72.569 235.066 72.7551 235.193 73.1642C233.526 72.8535 232.916 73.1011 231.699 72.3445C232.215 71.4771 233.108 73.0888 233.883 71.7878C233.018 71.2172 231.38 71.9477 230.868 71.5632C230.802 71.9846 230.736 72.406 230.318 72.6413C229.806 72.2568 227.688 72.3921 226.857 71.6109C227.467 71.3633 228.524 71.9215 228.655 71.0788C228.561 70.459 226.923 71.1895 227.021 70.5574C227.566 70.7312 228.819 70.0254 228.082 69.8639C226.222 69.5655 222.277 69.1918 219.905 68.509C225.583 68.772 230.2 69.7286 233.576 67.6356C231.683 67.5479 229.983 67.4479 228.959 66.679C231.171 67.1634 232.814 65.1812 234.285 66.7559C233.674 67.0035 233.58 66.3838 233.322 66.8174C235.243 67.9462 238.553 66.2746 241.282 65.8917C241.187 65.2719 239.549 66.0024 239.647 65.3704C239.84 65.3581 240.225 65.3335 240.29 64.9121C238.008 66.1008 235.956 65.8148 233.744 65.3303C238.492 65.4442 240.069 63.8833 243.22 62.0133C242.675 61.8395 243.285 61.5919 243.384 60.9598C242.454 60.8106 242.835 62.0379 241.745 61.6903C243.355 59.9187 241.651 61.0705 240.786 60.5C241.88 59.5957 242.327 60.4016 242.716 59.1252C241.495 59.6203 240.725 59.6696 240.086 58.876C241.889 57.0921 243.392 58.4562 245.707 57.0568C245.838 56.214 245.486 56.0279 244.941 55.8542C244.425 56.7215 243.814 56.9691 242.659 57.0429C242.696 55.5804 239.197 56.0125 239.234 54.55C239.169 54.9714 238.784 54.996 238.206 55.0329C238.37 53.9795 237.919 54.4255 237.248 53.8426C241.131 53.3859 242.827 54.7377 244.728 52.3217C244.019 53.2014 244.826 51.6897 245.212 51.6651C244.441 51.7143 243.446 51.9865 243.577 51.1437C244.347 51.0945 244.925 51.0576 245.695 51.0084C246.084 49.732 244.413 50.6731 244.351 49.8427C245.314 49.7812 246.949 50.3025 246.535 49.286C244.929 49.8058 242.656 48.4909 242.148 46.8546C242.758 46.607 242.979 47.6359 243.176 46.3718C241.734 45.8381 242.34 46.8423 240.607 46.953C240.865 46.5194 241.124 46.0857 241.382 45.652C240.292 45.3045 241.025 46.7178 240.255 46.767C240.034 45.7381 237.785 46.7162 237.371 45.6997C237.756 45.6751 238.526 45.6259 238.014 45.2414C235.732 46.4301 235.741 43.9265 233.942 44.4586C234.111 42.1534 230.903 41.9411 229.104 42.4732C229.649 42.647 230.419 42.5978 230.546 43.0068C228.367 42.3117 225.577 41.8642 223.91 41.5535C225.704 42.2733 223.046 40.983 225.037 40.4386C222.89 39.5328 221.378 40.6723 219.842 39.5189C225.233 39.1745 229.973 41.7919 235.364 41.4475C236.462 39.2914 239.957 40.1111 241.694 38.7486C240.346 38.8347 240.059 38.2273 238.998 38.9208C238.011 36.6894 235.762 37.6675 233.484 37.6044C227.999 37.3291 222.747 34.3272 217.327 33.6305C218.474 36.0603 219.863 33.2599 220.752 36.1233C219.695 35.5651 219.015 37.4859 218.568 36.68C219.113 36.8538 220.015 35.9619 219.244 36.0111C218.695 37.0891 217.929 35.8865 217.126 36.1464C217.614 34.2379 215.59 34.993 214.984 33.9888C215.82 33.5182 216.553 34.9315 216.59 33.469C215.369 33.9642 214.411 32.7739 213.509 33.6658C214.247 33.8273 214.533 34.4347 215.046 34.8192C214.468 34.8561 215.14 35.439 214.562 35.4759C214.153 33.2075 209.945 34.5193 209.31 32.4739C209.757 33.2798 210.945 32.9953 211.494 31.9173C209.31 32.4739 209.442 31.6312 207.258 32.1879C207.356 31.5558 206.971 31.5804 206.844 31.1714C207.295 30.7254 209.286 30.181 208.581 29.8088C207.746 30.2794 206.431 30.1548 205.374 29.5966C205.792 29.3613 206.21 29.126 206.435 28.903C203.252 30.9837 197.607 30.51 194.108 30.9421C195.456 30.856 196.546 31.2036 197.217 31.7864C196.062 31.8602 197.631 32.803 196.668 32.8645C195.673 33.1367 194.583 32.7891 195.677 31.8848C194.296 32.1816 193.207 31.8341 192.084 31.6972C192.273 32.9367 192.564 32.2924 191.502 32.9859C193.715 33.4704 194.522 31.9587 195.64 33.3473C193.137 33.5073 191.916 34.0024 189.737 33.3073C191.568 32.5645 190.187 32.8613 191.154 31.548C190.802 31.3619 188.557 31.0882 188.651 31.7079C189.036 31.6833 189.839 31.4235 189.741 32.0555C188.938 32.3154 186.947 32.8598 187.689 31.7695C185.989 31.6695 185.144 34.6437 183.768 33.6887C184.346 33.6518 184.763 33.4165 185.022 32.9828C183.641 33.2796 184.223 31.9909 184.063 31.7925C183.739 32.6475 182.719 30.6268 181.945 31.9278C182.072 32.3369 182.842 32.2877 182.711 33.1304C182.133 33.1673 180.048 33.092 180.913 33.6625C182.035 33.7994 182.453 33.5641 182.58 33.9732C180.908 34.9143 178.377 34.0331 178.123 33.215C179.376 32.5091 179.241 34.6037 179.79 33.5256C179.315 31.6787 176.738 34.7636 176.615 33.1027C177 33.0781 177.287 33.6855 177.578 33.0412C177 33.0781 176.267 31.6648 175.526 32.7551C176.329 32.4952 176.808 33.0904 175.845 33.1519C175.747 33.784 176.132 33.7594 176.259 34.1684C175.329 34.0192 175.714 33.9946 175.038 34.6636C175.104 34.2422 175.329 34.0192 175.587 33.5856C174.399 33.8701 173.662 33.7086 173.182 33.1134C173.084 33.7455 172.666 33.9808 172.121 33.807C172.379 33.3733 172.605 33.1503 172.285 32.7536C171.515 32.8028 170.745 32.852 169.782 32.9135C169.491 33.5578 170.036 33.7316 169.618 33.9669C169.233 33.9915 169.2 34.2022 168.975 34.4252C169.041 34.0038 169.106 33.5824 169.172 33.1611C165.575 34.2252 163.588 33.5178 159.545 33.7761C159.221 34.6312 161.339 34.4959 159.86 35.4247C158.803 34.8665 156.234 35.4478 154.661 35.7569C154.76 35.1248 154.375 35.1494 154.248 34.7404C155.436 34.4559 157.455 34.9526 158.164 34.0729C156.628 32.9196 152.097 35.0863 151.814 33.2271C151.523 33.8714 149.856 33.5608 149.696 33.3624C149.246 33.8084 149.242 35.0602 148.471 35.1094C148.57 34.4773 148.443 34.0683 148.091 33.8822C146.452 34.6127 145.075 33.6576 144.076 35.1816C143.47 34.1774 142.31 35.503 142.155 34.0528C139.52 35.0555 135.87 32.7856 132.654 35.077C129.484 33.4022 123.314 36.2995 119.181 34.6863C118.599 35.975 120.528 34.6002 119.947 35.8889C114.49 36.6547 108.046 35.1891 102.905 37.6035C103.2 35.7073 98.4761 37.8864 97.1325 36.7207C103.134 36.1287 96.3009 35.9395 94.695 36.4593C95.0473 36.6453 95.3996 36.8314 95.5593 37.0298C94.2771 36.6945 93.6011 37.3635 92.2206 37.6603C92.3517 36.8175 93.507 36.7437 93.9576 36.2978C92.4215 35.1444 90.7416 38.5891 89.2383 37.2251C89.8159 37.1882 90.0412 36.9652 90.2993 36.5315C88.7262 36.8406 87.8619 36.27 86.7394 36.1332C84.4575 37.3219 78.8124 36.8482 75.572 36.8467C76.1168 37.0204 77.0182 36.1285 76.248 36.1777C75.7645 36.8344 74.2898 36.5114 73.6466 36.9697C74.5479 36.0777 72.942 36.5975 73.8433 35.7056C67.8459 35.0458 68.03 37.5371 62.897 37.4479C63.9867 37.7954 64.5029 36.9281 64.7938 36.2837C64.7283 36.7051 65.5312 36.4452 65.8835 36.6313C66.3342 36.1853 66.2728 35.3549 67.043 35.3057C68.6817 34.5752 71.4714 35.0227 73.1101 34.2923C74.0401 34.4414 75.4862 33.7233 73.7533 33.834C70.4145 34.4645 67.465 33.8186 64.7695 33.9908C64.0321 33.8293 64.4214 32.5529 63.2333 32.8374C62.844 34.1138 64.2574 33.6063 64.5113 34.4245C63.7412 34.4737 63.1307 34.7212 62.8726 35.1549C63.9009 34.672 64.3802 35.2672 65.2773 35.6271C62.4219 35.6009 59.7306 34.5213 59.7878 36.6036C60.8816 35.6993 62.934 35.9854 64.4087 36.3083C63.0282 36.6051 62.2908 36.4436 61.6476 36.9019C61.7745 37.311 62.8028 36.8281 62.7045 37.4602C61.3567 37.5463 60.2998 36.988 57.5714 37.3709C57.9607 36.0945 53.9173 36.3529 52.4384 37.2817C54.1712 37.171 56.1294 36.8373 56.961 37.6185C55.1012 37.3202 52.0163 38.7688 51.6354 37.5416C51.8977 35.8561 52.5039 36.8603 53.3725 36.1791C51.4227 34.0091 56.8467 33.454 57.3259 34.0492C57.5554 32.5744 59.702 33.4802 60.6975 33.208C60.5335 34.2614 61.4307 34.6213 62.9382 34.7335C63.0038 34.3122 63.2291 34.0892 63.4872 33.6555C60.5705 32.7989 57.3957 32.376 54.7001 32.5482C55.5317 33.3294 53.4137 33.4648 52.963 33.9107C52.3156 35.6208 51.8935 37.1079 50.7711 36.971C50.6727 37.6031 50.6071 38.0245 50.5087 38.6565C49.0298 39.5854 46.1131 38.7288 44.6341 39.6576C44.888 40.4758 45.6952 38.9641 45.7238 40.0052C45.015 40.8848 42.897 41.0201 43.2207 40.1651C41.3525 42.3704 38.4685 41.3031 36.9568 42.4426C38.6855 43.5837 40.6479 41.9982 42.0898 42.5319C41.9587 43.3746 40.0047 42.4565 39.8735 43.2992C40.7051 44.0805 41.7661 43.3869 42.4707 43.7591C42.0857 43.7837 41.6022 44.4403 41.9873 44.4157C42.0528 43.9943 42.6305 43.9574 42.5649 44.3788C42.5321 44.5895 42.4993 44.8002 42.4665 45.0109C41.471 45.2831 41.3441 44.874 41.0245 44.4772C39.8979 45.5922 39.1849 47.7236 40.8522 48.0343C40.4385 47.0178 40.3771 46.1873 40.8934 45.32C42.5935 45.4199 43.1097 44.5526 44.3306 44.0574C43.9741 45.1231 41.8889 45.0478 43.1055 45.8044C42.5607 45.6306 41.6593 46.5226 42.4295 46.4734C43.1055 45.8044 43.7159 45.5568 43.7815 45.1354C44.7442 45.0739 45.3874 44.6157 45.8995 45.0001C45.8339 45.4215 45.2891 45.2477 45.2235 45.6691C46.2804 46.2273 47.1203 44.505 47.2431 46.1658C47.6609 45.9305 47.5054 44.4803 48.4025 44.8402C48.6237 45.869 47.8863 45.7076 47.6281 46.1412C48.0418 47.1578 49.6192 45.5968 49.1643 47.2946C48.5909 46.0797 47.6525 48.4342 47.4314 47.4054C47.6239 47.393 48.009 47.3684 48.0746 46.9471C46.694 47.2439 48.3655 46.3027 47.5954 46.3519C47.1733 47.839 44.0556 49.4983 44.9939 47.1439C43.9329 47.8375 43.5192 46.8209 42.4253 47.7252C43.0029 47.6883 43.1627 47.8867 43.2897 48.2957C41.2701 47.799 40.5613 48.6786 37.4478 49.0862C37.3536 48.4664 38.128 47.1654 37.3579 47.2146C37.0341 48.0696 34.0149 49.0969 34.9776 49.0354C35.2029 48.8124 36.4565 48.1065 36.5179 48.937C36.5751 51.0192 34.7808 50.2995 34.6168 51.3529C34.838 52.3817 35.4854 50.6717 36.2228 50.8331C36.0916 51.6759 35.0019 51.3283 34.8708 52.1711C35.4156 52.3448 36.1858 52.2956 35.8621 53.1507C35.2844 53.1876 35.2189 53.609 34.6412 53.6459C34.7068 53.2245 34.7724 52.8031 34.4201 52.617C34.3545 53.0384 34.2889 53.4598 34.2234 53.8811C35.1205 54.241 35.6039 53.5844 35.8906 54.1918C36.2387 55.6297 33.4818 54.9715 34.1536 55.5543C38.3895 55.2837 38.4593 53.6105 41.3558 50.9224C43.1829 51.4314 41.9662 50.6748 43.5722 50.155C43.6663 50.7748 43.0559 51.0223 43.4082 51.2084C43.9858 51.1715 44.92 50.0689 45.2395 50.4657C43.953 51.3822 45.268 51.5068 44.5592 52.3864C44.2725 51.779 42.6052 51.4683 41.9292 52.1373C42.9533 52.9062 40.6756 52.8431 40.098 52.8801C40.0896 55.3837 39.0285 56.0772 36.7466 57.266C37.4184 57.8488 38.3525 56.7462 38.7989 57.552C36.6768 58.9392 35.7511 57.5382 34.3747 56.5832C34.3091 57.0045 33.5717 56.843 33.1539 57.0783C32.8629 57.7227 32.572 58.3671 31.9288 58.8253C33.5675 58.0949 33.211 59.1606 34.2679 59.7188C34.9439 59.0499 35.2676 58.1948 36.1975 58.344C35.2962 59.236 36.7424 58.5178 36.3859 59.5835C35.8082 59.6204 34.8413 60.9337 35.2264 60.9091C36.0294 60.6493 36.0865 62.7315 36.5986 63.116C35.6031 63.3882 34.7387 62.8176 35.6401 61.9257C32.5224 63.585 37.5285 63.2651 37.975 64.071C37.3973 64.1079 37.172 64.3309 36.9139 64.7646C37.4915 64.7276 37.5571 64.3063 38.1347 64.2694C37.6513 64.926 36.9097 66.0164 38.3558 65.2982C37.4545 66.1901 38.0321 66.1532 38.0607 67.1944C37.9338 66.7853 34.3083 66.8083 35.2996 67.788C34.1443 67.8618 32.9563 68.1463 32.7023 67.3281C34.304 68.0602 32.6737 66.287 34.0543 65.9902C34.632 65.9533 34.0829 67.0313 34.8531 66.9821C34.9187 66.5608 34.7589 66.3624 34.632 65.9533C35.3693 66.1148 37.7126 65.7565 36.8483 65.1859C35.9798 65.8672 35.693 65.2597 34.2797 65.7672C34.7631 65.1106 35.2138 64.6646 35.6973 64.0079C35.1196 64.0448 32.5552 63.3743 33.0017 64.1801C33.7718 64.1309 34.1569 64.1063 34.0585 64.7384C32.424 64.217 33.3455 66.8698 32.2231 66.733C30.8139 65.9886 31.4613 64.2786 32.3627 63.3866C30.2775 63.3112 30.8139 65.9886 30.7483 66.41C30.6542 65.7903 28.405 66.7683 29.4947 67.1159C28.7245 67.1651 27.9544 67.2143 27.8274 66.8052C27.856 67.8463 28.8515 67.5742 29.4619 67.3266C29.7814 67.7233 29.6175 68.7768 30.1295 69.1612C30.3876 68.7276 31.8338 68.0094 31.928 68.6291C30.0026 68.7522 31.6698 69.0628 30.5104 70.3884C31.8582 70.3023 30.4776 70.5991 30.412 71.0205C31.9195 71.1328 30.0883 71.8755 30.1497 72.706C31.4319 73.0412 31.0838 71.6033 31.8868 71.3435C31.7228 72.3969 32.493 72.3477 32.1037 73.6241C33.4843 73.3273 33.734 75.3972 34.5411 73.8855C35.0204 74.4807 36.4338 73.9732 36.0773 75.0389C34.6353 74.5053 32.6771 74.839 31.1653 75.9785C31.1368 74.9374 29.8218 74.8128 29.4325 76.0892C30.7147 76.4245 34.41 74.7283 33.0866 77.1073C32.2836 77.3672 33.5086 75.6202 32.2878 76.1154C32.4762 77.3549 32.1566 76.9582 31.2267 76.809C31.8615 78.8543 32.4148 76.5245 33.6272 78.5329C33.496 79.3757 32.2138 79.0404 32.2096 80.2922C32.7545 80.466 33.5246 80.4168 33.6516 80.8259C31.0872 80.1553 32.5863 82.7712 30.3086 82.7082C30.3414 82.4975 31.2755 81.3949 30.5053 81.4441C30.5667 82.2745 29.8293 82.113 29.8579 83.1541C30.8534 82.882 31.3982 83.0557 31.4924 83.6755C31.5908 83.0434 32.3609 82.9942 33.1311 82.945C33.0655 83.3664 33.4178 83.5525 33.3195 84.1845C32.1642 84.2583 29.8823 85.4471 29.8495 85.6578C31.8405 85.1134 31.2587 86.4021 31.32 87.2325C33.5078 85.424 33.311 86.6882 34.3023 87.6678C32.2785 88.4228 30.7096 87.4801 28.8128 88.6443C29.8369 89.4132 28.8128 88.6443 28.3293 89.3009C28.4235 89.9207 29.6771 89.2148 29.7713 89.8346C29.1937 89.8715 28.7758 90.1068 28.5177 90.5404C30.8938 89.9715 32.9831 88.795 35.1297 89.7008C33.9088 90.196 33.4624 89.3902 33.2984 90.4436C32.0532 88.6458 31.463 92.4382 30.6028 90.6158C31.1393 93.2932 34.515 91.2002 37.4931 92.8873C34.1871 93.3071 31.6513 93.6777 28.157 92.858C28.2553 92.2259 30.058 90.442 29.382 91.111C28.3865 91.3832 28.1898 92.6473 27.354 93.1179C26.4897 92.5473 28.0998 90.7757 27.3952 90.4036C26.2685 91.5185 27.1329 92.0891 26.8705 93.7745C27.8005 93.9237 28.1242 93.0687 29.0541 93.2178C28.1528 94.1098 29.308 94.036 29.3694 94.8664C29.9142 95.0402 31.3604 94.322 31.4218 95.1525C31.2292 95.1648 30.8441 95.1894 30.7786 95.6108C31.4503 96.1936 32.1877 96.3551 33.216 95.8722C32.9865 97.347 32.8225 98.4004 33.7196 98.7603C34.0761 97.6946 32.8881 97.9791 33.4371 96.901C33.8222 96.8764 33.7281 96.2567 34.1131 96.2321C33.982 97.0748 33.3346 98.7849 34.5184 99.7522C34.3629 98.302 36.8659 98.1421 37.2182 98.3282C37.087 99.1709 35.3256 98.2405 35.3869 99.071C36.1243 99.2324 36.6692 99.4062 37.8244 99.3324C37.3864 96.023 44.4036 98.7035 42.3554 97.1656C43.8958 97.0672 45.0183 97.2041 45.4647 98.0099C45.0796 98.0345 44.6945 98.0591 44.4364 98.4928C44.9485 98.8773 45.6245 98.2083 46.4888 98.7788C46.8453 97.7131 45.5917 98.419 45.7228 97.5762C46.8125 97.9238 46.9109 97.2917 47.9064 97.0196C47.6768 98.4944 51.151 95.7693 52.0439 97.381C53.1378 96.4767 52.7241 95.4602 54.7437 95.9569C54.5226 94.9281 52.7897 95.0388 53.306 94.1715C52.0195 95.088 49.5165 95.248 48.6194 94.8881C50.1925 94.579 52.503 94.4314 53.6952 92.8951C54.1417 93.7009 54.6908 92.6229 55.8132 92.7598C55.5837 94.2346 60.6923 92.0309 62.0031 93.4072C60.6553 93.4933 59.0822 93.8024 58.6644 94.0377C59.7498 95.6371 62.9331 93.5564 63.2156 95.4157C64.0227 93.904 66.8739 95.182 67.6482 93.8809C67.8038 95.3311 69.7334 93.9563 70.1799 94.7621C70.8559 94.0932 69.9588 93.7333 70.9543 93.4611C72.6258 92.52 72.4576 94.8252 73.3589 93.9333C77.4065 92.4231 82.5724 92.3017 87.8651 92.5893C87.4801 92.6139 86.9024 92.6508 86.8041 93.2828C87.9265 93.4197 89.2172 91.2514 90.1757 92.4417C89.4055 92.4909 88.6353 92.5401 88.5369 93.1721C92.0397 91.4882 94.6041 92.1587 97.3981 91.3545C97.9757 91.3176 97.4267 92.3956 98.1968 92.3464C100.253 91.3806 104.006 91.7666 106.185 92.4618C107.57 90.9132 110.417 93.443 112.22 91.6591C111.257 91.7206 110.97 91.1131 110.266 90.7409C111.904 90.0105 111.929 92.3034 112.863 91.2008C112.67 91.2131 111.646 90.4441 112.449 90.1843C112.83 91.4115 115.018 89.603 115.333 91.2515C114.338 91.5237 113.215 91.3869 112.666 92.4649C116.39 91.8098 115.812 91.8467 117.357 90.4965C117.836 91.0916 118.672 90.6211 118.799 91.0301C118.348 91.4761 118.123 91.6991 117.672 92.1451C118.987 92.2696 120.085 90.1136 121.429 91.2793C120.818 91.5269 119.762 90.9686 119.63 91.8114C121.847 91.044 121.843 92.2958 121.265 92.3327C122.002 92.4942 122.551 91.4161 123.317 92.6188C123.575 92.1851 123.575 92.1851 124.444 91.5038C124.19 90.6857 121.843 92.2958 121.88 90.8333C123.002 90.9702 125.505 90.8103 125.636 89.9675C126.759 90.1044 130.126 90.515 129.97 89.0648C129.68 89.7092 128.205 89.3862 128.496 88.7419C130.454 88.4082 133.469 88.6327 135.263 89.3524C138.348 87.9038 143.317 89.0465 145.632 87.647C145.566 88.0684 145.341 88.2914 145.083 88.7251C148.196 88.3176 150.605 87.5379 152.301 88.8897C152.817 88.0223 154.677 88.3207 155.546 87.6394C154.997 88.7174 155.8 88.4576 155.927 88.8666C155.542 88.8912 155.156 88.9158 154.898 89.3495C156.664 89.0281 157.909 90.8259 158.938 90.343C158.2 90.1815 158.557 89.1158 158.27 88.5083C158.975 88.8805 158.815 88.6821 159.937 88.819C160.392 87.1212 157.242 88.9912 157.021 87.9624C159.204 87.4057 162.055 88.6837 161.322 87.2704C162.895 86.9613 162.666 88.4361 163.178 88.8205C163.788 88.5729 164.845 89.1312 164.976 88.2885C163.854 88.1516 165.107 87.4457 164.661 86.6399C167.455 85.8356 171.461 87.0398 174.575 86.6323C175.345 86.583 179.073 84.6761 177.27 86.46C178.393 86.5969 181.797 85.545 180.83 86.8584C182.117 85.9418 184.525 85.1621 186.287 86.0926C185.517 86.1418 184.906 86.3893 184.648 86.823C187.123 85.622 187.11 89.3774 188.335 87.6304C188.208 87.2213 186.795 87.7288 187.344 86.6508C187.79 87.4566 190.039 86.4786 189.777 88.1641C186.696 88.3609 183.771 90.0079 181.883 88.6684C181.846 90.1309 179.957 88.7914 179.953 90.0432C182.428 88.8422 188.069 90.5677 192.018 89.6896C191.633 89.7142 190.83 89.9741 190.928 89.3421C194.394 89.1206 200.617 89.5574 203.087 89.6082C204.402 89.7328 211.399 88.8686 212.837 90.654C210.493 91.0123 208.187 89.9081 206.163 90.6632C210.62 91.4214 213.64 90.3941 215.43 92.3657C212.095 91.7443 208.629 91.9658 205.422 91.7535C206.507 93.3529 211.165 91.5952 211.993 93.6282C209.137 93.602 206.925 93.1176 204.741 93.6743C206.667 93.5513 208.555 94.8908 211.575 93.8635C214.102 95.9965 221.259 95.3307 225.311 92.5687C223.643 92.2581 219.333 95.4537 217.351 93.4945C219.018 93.8051 220.6 90.9924 223.037 91.2538C223.099 92.0843 221.849 91.5383 221.718 92.3811C222.423 92.7532 223.84 90.994 225.667 91.503ZM213.029 90.6417C213.644 89.1423 214.471 91.1754 216.11 90.4449C215.303 91.9566 213.992 90.5802 213.029 90.6417ZM189.748 87.1229C192.321 85.2898 193.73 86.0342 197.422 85.5898C198.351 85.7389 196.778 86.048 196.393 86.0726C200.174 87.4998 197.352 87.2629 194.755 86.8031C194.656 87.4352 195.041 87.4106 195.201 87.6089C194.492 88.4886 192.858 87.9672 191.862 88.2394C192.669 86.7277 190.773 87.8919 189.748 87.1229ZM52.3718 95.2741C52.8881 94.4068 53.4615 95.6217 54.0106 94.5437C54.3956 94.5191 54.1047 95.1634 54.4898 95.1388C54.1005 96.4152 52.6586 95.8816 52.3718 95.2741ZM167.082 34.3375C166.628 36.0353 165.124 34.6712 163.936 34.9557C164.903 33.6424 165.702 34.6343 167.082 34.3375ZM221.235 35.4667C221.94 35.8388 222.386 36.6447 223.734 36.5586C223.058 37.2275 220.973 37.1522 220.461 36.7677C220.559 36.1356 221.489 36.2848 221.235 35.4667ZM211.591 88.8563C213.07 87.9274 216.917 88.9332 213.644 89.1423C212.906 88.9808 212.235 88.398 211.591 88.8563ZM203.837 86.0142C204.091 86.8324 205.602 85.6928 204.8 85.9527C209.552 84.8148 215.709 85.6729 220.485 86.8279C215.504 89.4407 210.641 85.1623 204.603 87.2169C204.701 86.5848 203.865 87.0554 203.837 86.0142ZM205.5 87.5767C207.585 87.6521 208.708 87.789 211.178 87.8397C210.727 88.2857 206.106 88.5809 205.5 87.5767ZM118.705 90.4104C118.385 90.0136 117.615 90.0628 117.037 90.0997C115.98 89.5415 118.385 90.0136 118.291 89.3938C118.422 88.5511 117.648 89.8521 117.136 89.4676C118.938 87.6838 120.216 89.2708 122.269 89.5569C120.7 88.6142 126.251 88.4681 126.955 88.8403C124.03 90.4873 121.527 90.6472 119.381 89.7414C119.446 89.32 119.799 89.5061 120.024 89.2831C120.089 88.8618 119.672 89.097 119.512 88.8987C118.709 89.1586 118.77 89.989 118.705 90.4104ZM37.4519 95.6016C37.5503 94.9695 38.8039 94.2637 38.4146 95.5401C38.8653 95.0941 39.1234 94.6604 40.0534 94.8096C39.5043 95.8876 38.1893 95.7631 37.4519 95.6016ZM43.9698 94.1422C43.3879 95.4309 41.7207 95.1203 40.1475 95.4294C40.2131 95.008 40.7579 95.1818 41.1758 94.9465C41.2414 94.5251 40.631 94.7727 40.2787 94.5866C41.1145 94.116 42.8431 95.2571 43.9698 94.1422ZM108.213 90.4549C109.049 89.9843 110.106 90.5426 111.585 89.6137C111.322 91.2992 109.368 90.3811 108.213 90.4549ZM174.227 85.1944C173.612 86.6938 168.483 85.3527 165.177 85.7725C162.449 86.1554 160.486 87.7409 159.11 86.7859C160.274 84.2085 153.432 86.5229 150.511 86.9181C150.577 86.4968 150.929 86.6828 151.154 86.4598C151.253 85.8278 150.708 85.654 150.097 85.9016C151.642 84.5514 152.854 86.5598 154.497 84.5775C158.438 86.2031 161.949 82.0155 167.619 84.7822C168.389 84.733 167.557 83.9517 167.139 84.187C167.205 83.7656 169.286 85.0928 168.135 83.9148C170.572 84.1763 174.964 85.3558 180.167 83.7719C179.585 85.0606 184.149 82.6831 185.558 83.4274C182.666 84.8638 178.27 84.936 174.804 85.1575C175.185 86.3847 174.546 85.5911 174.227 85.1944ZM49.8444 93.1411C50.2009 92.0754 53.7608 92.4737 53.6952 92.8951C51.737 93.2288 51.4175 92.832 49.8444 93.1411ZM186.004 84.2333C186.136 83.3905 187.451 83.5151 188.221 83.4659C187.737 84.1226 186.967 84.1718 186.004 84.2333ZM148.942 85.9754C147.783 87.301 144.223 86.9027 147.336 86.4952C147.947 86.2476 148.012 85.8262 148.942 85.9754ZM103.953 88.4326C103.564 89.709 102.605 88.5187 102.122 89.1753C99.2336 89.3599 101.192 89.0262 102.605 88.5187C103.343 88.6802 103.15 88.6925 103.953 88.4326ZM85.9196 89.1675C86.3047 89.1429 86.3702 88.7216 86.4358 88.3002C87.4927 88.8584 89.2911 88.3264 90.3522 87.6328C91.1838 88.414 90.9256 88.8477 92.2121 87.9312C92.1137 88.5632 91.9211 88.5755 91.663 89.0092C92.2735 88.7616 95.6778 87.7097 95.4483 89.1845C96.1571 88.3049 97.7958 87.5744 97.6318 88.6278C98.9182 87.7113 100.524 87.1915 100.59 86.7701C101.229 87.5637 101.938 86.684 101.966 87.7252C104.821 87.7513 105.403 86.4626 106.78 87.4176C107.263 86.761 112.716 87.247 109.795 87.6422C109.025 87.6914 109.119 88.3111 108.64 87.716C108.254 87.7406 108.381 88.1496 108.156 88.3726C107.066 88.0251 104.367 89.4491 104.404 87.9866C103.216 88.2711 102.413 88.531 101.389 87.7621C100.938 88.208 100.008 88.0589 100.037 89.1C95.7678 89.5813 92.302 89.8027 89.4181 88.7354C87.1976 90.7546 83.4165 89.3275 80.6881 89.7104C82.3596 88.7692 83.8016 89.3029 85.6656 88.3494C84.8257 90.0718 85.4403 88.5724 85.9196 89.1675ZM38.4886 92.6151C38.4601 91.574 39.5497 91.9215 40.1929 91.4632C40.2215 92.5044 39.4513 92.5536 38.4886 92.6151ZM155.751 83.8717C155.239 83.4872 157.197 83.1535 157.582 83.1289C157.459 81.468 156.427 83.2027 155.948 82.6076C155.854 81.9878 156.239 81.9632 156.624 81.9386C156.177 81.1328 154.346 81.8755 153.543 82.1354C154.543 80.6114 152.548 82.4076 152.101 81.6018C151.909 81.6141 151.65 82.0478 151.458 82.0601C152.355 82.4199 151.421 83.5226 150.298 83.3857C151.81 82.2461 149.594 83.0135 148.824 83.0627C149.143 83.4595 148.918 83.6825 148.34 83.7194C148.439 83.0873 148.824 83.0627 148.922 82.4307C150.942 82.9274 151.11 80.6222 153.322 81.1066C153.162 80.9082 153.228 80.4868 152.843 80.5114C154.895 80.7975 156.44 79.4473 158.619 80.1424C158.553 80.5638 158.201 80.3777 157.976 80.6007C158.135 80.7991 158.037 81.4311 158.389 81.6172C158.033 82.6829 157.459 81.468 156.849 81.7156C157.136 82.3231 157.906 82.2739 158.869 82.2124C158.93 83.0428 158.193 82.8813 157.742 83.3273C158.606 83.8978 160.696 82.7214 162.363 83.0321C162.429 82.6107 161.818 82.8583 161.466 82.6722C162.015 81.5942 163.809 82.3139 164.739 82.4631C164.481 82.8967 162.523 83.2304 164.256 83.1197C162.326 84.4946 159.573 82.5845 158.315 84.5422C158.512 83.2781 157.164 83.3642 155.751 83.8717ZM148.701 81.4018C148.926 81.1788 149.184 80.7452 149.442 80.3115C150.02 80.2746 150.405 80.25 150.983 80.2131C151.048 79.7917 150.63 80.027 150.471 79.8286C150.536 79.4072 150.889 79.5933 151.114 79.3703C151.02 78.7506 149.352 78.4399 148.676 79.1089C147.525 77.9309 150.7 78.3538 150.672 77.3127C151.151 77.9078 150.86 78.5522 153.011 78.2062C152.912 78.8383 150.762 79.1843 152.269 79.2965C152.044 79.5195 151.626 79.7548 151.208 79.9901C152.97 80.9205 150.245 80.0516 150.946 81.6756C151.016 80.0024 147.447 82.1077 148.701 81.4018ZM146.075 79.9009C146.141 79.4795 146.493 79.6656 146.718 79.4426C146.784 79.0212 145.821 79.0827 145.756 79.5041C144.891 78.9336 146.915 78.1785 147.652 78.34C147.751 77.7079 146.53 78.2031 146.178 78.017C146.759 76.7283 148.296 77.8817 149.549 77.1758C148.775 78.4768 147.488 79.3934 146.075 79.9009ZM151.224 84.7867C151.069 83.3365 151.355 83.9439 151.904 82.8659C152.9 82.5937 153.604 82.9659 154.342 83.1273C153.281 83.8209 151.228 83.5349 151.929 85.1588C150.933 85.431 150.229 85.0589 149.491 84.8974C149.782 84.253 150.266 83.5964 150.843 83.5595C150.937 84.1792 150.679 84.6129 150.102 84.6498C150.069 84.8605 150.839 84.8113 151.224 84.7867ZM170.614 81.462C171.314 83.0859 168.975 82.1924 168.43 82.0187C169.139 81.139 170.097 82.3293 170.614 81.462ZM179.192 77.785C178.643 78.8631 179.061 78.6278 178.545 79.4951C178.996 79.0491 180.118 79.186 181.114 78.9138C179.729 80.4624 178.385 79.2967 176.234 79.6427C176.103 80.4855 178.225 79.0983 177.611 80.5977C176.423 80.8822 175.235 81.1667 174.239 81.4389C174.464 81.2159 174.723 80.7823 174.788 80.3609C173.727 81.0545 173.338 82.3309 171.445 82.2432C171.285 82.0448 171.158 81.6357 171.224 81.2144C166.796 81.4973 165.673 81.3604 160.507 81.4819C161.474 80.1686 162.789 80.2931 164.424 80.8145C164.809 80.7899 164.715 80.1701 164.973 79.7365C165.612 80.53 166.964 79.1921 168.246 79.5273C168.021 79.7503 167.763 80.184 167.697 80.6054C169.43 80.4946 171.163 80.3839 172.896 80.2732C175.088 77.2129 176.808 80.8576 179.192 77.785ZM172.961 79.8519C168.66 80.5439 172.519 77.7942 172.961 79.8519V79.8519ZM222.027 76.9257C220.322 78.0775 218.946 77.1225 216.57 77.6915C216.025 77.5177 216.156 76.6749 216.635 77.2701C218.467 76.5273 220.167 76.6273 222.027 76.9257ZM232.039 76.286C232.137 75.6539 232.555 75.4186 233.645 75.7662C232.678 77.0795 230.691 76.3721 230.052 75.5786C230.535 74.9219 231.945 75.6662 232.039 76.286ZM189.68 78.9923C187.689 79.5367 184.735 80.1426 183.809 78.7416C184.932 78.8785 186.472 78.7801 188.111 78.0496C188.106 79.3014 187.979 78.8923 189.68 78.9923ZM183.358 79.1876C183.293 79.6089 180.724 80.1902 181.306 78.9015C182.429 79.0384 182.236 79.0507 183.358 79.1876ZM207.107 77.2531C207.848 76.1628 208.295 76.9686 209.675 76.6718C208.774 77.5638 207.811 77.6253 207.107 77.2531ZM229.089 75.6401C228.188 76.532 227.422 75.3294 226.009 75.8369C225.882 75.4278 229.093 74.3883 229.089 75.6401ZM187.181 77.9004C187.246 77.479 187.279 77.2684 187.345 76.847C187.603 76.4133 188.918 76.5379 188.787 77.3806C188.049 77.2192 187.918 78.0619 187.181 77.9004ZM179.545 77.9711C179.901 76.9054 181.789 78.2449 181.728 77.4144C182.56 78.1957 179.606 78.8015 179.545 77.9711ZM192.06 77.1715C191.675 77.1961 191.933 76.7624 192.125 76.7501C191.966 76.5518 191.613 76.3657 191.261 76.1796C191.392 75.3368 192.224 76.1181 192.158 76.5395C193.83 75.5983 195.431 76.3303 196.009 76.2934C198.639 76.5426 195.399 76.541 193.891 76.4287C193.44 76.8747 192.51 76.7255 192.06 77.1715ZM183.973 77.6882C184.039 77.2668 184.071 77.0561 184.457 77.0315C184.522 76.6101 183.912 76.8577 183.559 76.6716C183.625 76.2503 184.362 76.4118 184.78 76.1765C184.231 77.2545 185.001 77.2053 185.772 77.1561C186.636 77.7266 184.551 77.6513 183.973 77.6882ZM189.782 77.1084C189.012 77.1576 189.561 76.0796 188.983 76.1165C189.082 75.4845 190.364 75.8197 190.782 75.5844C190.651 76.4272 189.88 76.4764 189.782 77.1084ZM158.078 78.7168C157.562 79.5842 155.927 79.0628 154.932 79.335C154.068 78.7645 156.472 79.2366 156.251 78.2078C156.603 78.3939 156.28 79.2489 157.308 78.766C156.444 78.1955 157.214 78.1463 158.369 78.0725C158.304 78.4938 157.951 78.3077 157.726 78.5307C157.693 78.7414 157.886 78.7291 158.078 78.7168ZM161.159 78.52C164.178 77.4927 165.137 78.683 161.159 78.52V78.52ZM162.384 76.773C162.286 77.4051 161.196 77.0575 160.778 77.2928C160.811 77.0821 161.003 77.0698 161.229 76.8468C161.294 76.4254 160.876 76.6607 160.717 76.4623C159.787 76.3132 161.36 76.0041 161.745 75.9795C161.778 75.7688 161.585 75.7811 161.425 75.5827C161.942 74.7153 161.806 76.8099 162.384 76.773ZM160.266 76.9083C159.524 77.9986 158.758 76.796 157.763 77.0682C158.599 76.5977 159.111 76.9821 160.266 76.9083ZM37.7479 83.9016C36.7524 84.1738 37.2687 83.3064 37.5268 82.8728C36.8508 83.5417 35.9537 83.1819 36.2732 83.5786C35.9823 84.223 35.6956 83.6155 35.3105 83.6401C35.3432 83.4295 35.376 83.2188 35.4088 83.0081C37.531 81.621 37.3998 82.4637 39.6447 82.7375C40.6688 83.5064 37.3998 82.4637 37.7479 83.9016ZM36.475 71.2589C36.4094 71.6803 35.672 71.5188 35.2542 71.7541C35.3525 71.122 34.9674 71.1466 35.0658 70.5146C36.0613 70.2424 35.7048 71.3081 36.475 71.2589ZM42.9155 64.1725C44.0051 64.5201 42.8499 64.5939 42.7187 65.4366C41.7888 65.2875 42.1739 65.2629 41.1784 65.535C41.7602 64.2463 42.8129 66.0564 42.9155 64.1725ZM43.1122 62.9084C42.7229 64.1848 41.8956 62.1518 41.5063 63.4282C40.642 62.8576 42.4076 62.5362 42.8255 62.301C42.7599 62.7223 42.9197 62.9207 43.1122 62.9084ZM37.6967 60.9599C37.795 60.3279 39.7205 60.2048 39.1714 61.2829C38.7208 61.7288 38.434 61.1214 37.6967 60.9599ZM39.0857 58.1595C39.2454 58.3579 39.5977 58.544 39.9828 58.5194C39.6591 59.3744 38.7292 59.2252 38.5652 60.2787C38.4055 60.0803 38.0532 59.8942 37.9876 60.3156C37.1233 59.745 39.4337 59.5974 39.0857 58.1595ZM42.2647 57.3306C42.1991 57.752 41.8468 57.5659 41.8796 57.3552C40.3679 58.4948 45.8574 57.5183 42.6784 58.3471C42.1007 58.384 42.0352 58.8054 41.4575 58.8423C41.1381 58.4455 40.8185 58.0488 40.499 57.652C40.6302 56.8093 42.105 57.1322 42.2647 57.3306ZM179.654 45.424C179.265 46.7004 181.129 45.7469 182.571 46.2806C181.669 47.1725 180.711 45.9822 179.424 46.8988C179.142 45.0395 178.724 45.2748 179.654 45.424ZM164.898 44.698C166.664 44.3766 167.335 44.9595 169.068 44.8488C167.815 45.5546 164.927 45.7391 164.898 44.698ZM163.259 45.4285C162.682 45.4654 162.104 45.5023 161.526 45.5392C161.531 44.2874 162.747 45.044 163.358 44.7964C163.325 45.0071 163.292 45.2178 163.259 45.4285ZM163.841 44.1398C163.71 44.9825 160.474 43.7291 160.371 45.613C159.535 46.0836 158.737 45.0917 158.638 45.7237C157.774 45.1532 158.933 43.8275 159.863 43.9767C159.929 43.5554 159.511 43.7906 159.351 43.5923C158.806 43.4185 159.609 43.1586 159.994 43.134C160.314 43.5308 160.248 43.9521 159.798 44.3981C160.248 43.9521 162.399 43.6061 163.841 44.1398ZM141.023 46.2234C140.994 45.1823 139.736 47.14 140.158 45.6528C143.755 44.5887 148.274 46.1773 150.814 44.5549C150.752 43.7245 149.175 45.2854 148.761 44.2688C149.405 43.8106 150.818 43.3031 152.711 43.3908C150.236 44.5918 153.19 43.9859 154.632 44.5196C153.763 45.2008 153.796 44.9901 153.472 45.8452C148.692 45.942 143.882 44.9978 138.454 46.8047C138.553 46.1726 138.167 46.1972 138.266 45.5652C139.257 46.5448 139.384 46.9539 141.023 46.2234ZM48.1234 51.5329C47.5457 51.5699 47.4516 50.9501 47.1607 51.5945C46.2963 51.0239 48.4471 50.6779 48.865 50.4426C48.7994 50.864 48.7666 51.0747 48.701 51.496C48.3159 51.5206 48.574 51.087 48.4143 50.8886C48.4143 50.8886 48.3815 51.0993 48.1234 51.5329ZM231.686 38.1365C231.042 38.5947 230.53 38.2103 228.99 38.3087C229.572 37.02 230.981 37.7643 231.686 38.1365ZM220.133 38.8746C219.682 39.3205 218.494 39.605 218.499 38.3532C219.269 38.304 219.588 38.7008 220.133 38.8746ZM151.011 43.2908C151.236 43.0678 151.494 42.6341 151.109 42.6587C151.175 42.2374 153.805 42.4865 153.325 41.8914C153.649 41.0363 154.222 42.2512 155.058 41.7806C154.829 43.2554 152.264 42.5849 151.011 43.2908ZM146.648 43.1523C147.742 42.2481 147.418 43.1031 147.23 41.8636C146.3 41.7145 146.009 42.3588 145.431 42.3957C147.008 40.8348 148.127 42.2235 150.31 41.6668C149.954 42.7325 149.86 42.1128 149.089 42.162C148.958 43.0047 150.306 42.9186 150.757 42.4726C150.273 43.1293 147.963 43.2769 146.648 43.1523ZM213.3 38.6854C214.361 37.9918 213.657 37.6196 212.501 37.6934C213.661 36.3678 215.451 38.3394 215.709 37.9057C216.381 38.4885 213.972 39.2682 213.3 38.6854ZM211.76 38.7838C210.51 38.2378 212.276 37.9164 212.788 38.3009C211.243 39.6511 207.974 38.6084 206.819 38.6822C208.298 37.7534 210.445 38.6592 211.76 38.7838ZM140.871 43.5214C141.613 42.4311 142.862 42.977 144.628 42.6556C143.309 43.7828 142.477 43.0016 140.871 43.5214ZM165.402 37.7823C166.717 37.9069 166.591 37.4978 168.418 38.0068C168.098 37.6101 167.553 37.4363 168.901 37.3502C168.549 37.1641 169.098 36.0861 168.102 36.3583C169.581 35.4294 169.38 37.9453 172.043 37.9838C172.109 37.5624 171.498 37.81 171.146 37.6239C170.216 37.4748 171.789 37.1657 172.174 37.1411C172.014 36.9427 171.662 36.7566 171.31 36.5705C173.362 36.8566 174.71 36.7705 176.922 37.2549C176.406 38.1222 173.485 38.5174 172.686 37.5255C172.268 37.7608 172.813 37.9346 172.522 38.579C172.17 38.3929 171.818 38.2068 171.048 38.256C169.986 38.9496 170.466 39.5447 170.302 40.5981C169.917 40.6227 169.724 40.635 169.659 41.0564C169.405 40.2383 169.114 40.8826 167.991 40.7458C168.86 40.0645 168.671 38.825 169.63 40.0153C169.319 37.1149 165.075 39.8891 163.637 38.1037C165.112 38.4267 165.308 37.1625 166.496 36.878C166.205 37.5224 165.98 37.7454 165.402 37.7823ZM179.835 39.3633C179.06 40.6643 177.463 38.6805 175.984 39.6093C176.213 38.1345 178.52 39.2387 178.876 38.173C179.482 39.1772 178.712 39.2264 179.835 39.3633ZM166.996 41.0179C166.291 40.6458 165.648 41.1041 164.558 40.7565C165.234 40.0875 165.878 39.6293 166.84 39.5678C166.742 40.1998 167.094 40.3859 166.996 41.0179ZM157.692 40.778C157.053 39.9844 155.03 40.7395 153.907 40.6026C154.55 40.1444 156.189 39.4139 156.668 40.009C157.438 39.9598 156.029 39.2155 157.344 39.3401C156.386 38.1498 154.231 39.7476 153.207 38.9787C156.259 37.7407 157.734 38.0637 161.744 38.016C160.392 39.3539 159.241 38.1759 157.795 38.8941C157.631 39.9475 159.044 39.4401 158.688 40.5058C160.068 40.209 160.421 40.3951 161.867 39.6769C160.961 41.8207 158.176 40.1213 157.049 41.2363C156.213 41.7068 156.119 41.0871 157.692 40.778ZM138.537 41.3761C137.762 42.6771 135.071 41.5975 134.104 42.9108C134.169 42.4894 134.202 42.2788 133.817 42.3034C134.653 41.8328 137.701 41.8466 138.537 41.3761ZM205.615 34.1702C204.681 35.2728 202.924 33.0906 200.388 33.4612C200.904 32.5938 202.539 33.1152 203.084 33.289C203.501 33.0537 202.957 32.8799 203.247 32.2355C204.821 31.9264 205.365 32.1002 207.098 31.9895C206.164 33.0921 205.718 32.2863 204.337 32.5831C204.751 33.5996 207.995 32.3494 206.738 34.307C208.155 32.5478 211.359 34.0118 210.777 35.3005C211.162 35.2759 211.547 35.2513 211.932 35.2267C211.772 35.0283 211.42 34.8422 211.068 34.6562C211.809 33.5658 212.575 34.7684 213.12 34.9422C213.055 35.3636 212.702 35.1775 212.477 35.4005C213.308 36.1817 215.267 35.848 216.131 36.4186C213.464 37.6319 210.265 34.9161 207.508 34.2578C207.311 35.522 209.368 34.5562 209.847 35.1513C208.819 35.6342 206.221 35.1744 205.615 34.1702ZM195.271 38.1685C195.816 38.3423 196.139 37.4872 195.754 37.5118C196.656 36.6199 200.789 38.2331 200.666 36.5723C201.182 35.7049 202.428 37.5027 201.559 38.1839C201.342 35.9033 198.122 39.4465 197.807 37.7979C195.234 39.631 193.092 37.4734 190.298 38.2777C191.65 36.9397 193.411 37.8702 195.595 37.3135C195.754 37.5118 195.336 37.7471 195.271 38.1685ZM179.933 38.7313C179.229 38.3591 181.506 38.4222 181.764 37.9885C182.375 37.7409 182.309 38.1623 182.244 38.5836C186.287 38.3253 183.751 38.6959 181.568 39.2526C180.797 39.3018 181.699 38.4099 179.933 38.7313ZM172.936 39.5955C173.452 38.7281 174.894 39.2618 175.697 39.0019C174.988 39.8815 173.641 39.9676 172.936 39.5955ZM147.717 39.9552C147.393 40.8102 149.098 39.6584 148.516 40.9471C147.652 40.3765 146.717 41.4792 145.886 40.6979C146.722 40.2273 147.398 39.5584 147.914 38.691C148.201 39.2985 149.614 38.791 149.45 39.8444C147.652 40.3765 148.717 38.4312 147.717 39.9552ZM145.468 40.9332C144.346 40.7963 142.547 41.3284 142.359 40.0889C143.448 40.4365 145.247 39.9044 145.468 40.9332ZM187.16 36.3922C183.145 37.6917 181.252 37.604 178.012 37.6025C178.467 35.9047 179.265 36.8966 180.871 36.3768C179.294 37.9377 186.136 35.6233 187.16 36.3922ZM200.736 34.8991C201.187 34.4531 204.333 33.8349 203.944 35.1113C202.563 35.4081 201.985 35.445 200.736 34.8991ZM155.841 37.976C155.718 36.3151 157.799 37.6423 157.836 36.1798C158.315 36.775 159.245 36.9241 160.433 36.6396C159.208 38.3866 157.127 37.0594 155.841 37.976ZM138.418 38.4634C138.516 37.8313 141.278 37.2377 141.499 38.2666C140.057 37.7329 139.282 39.0339 138.418 38.4634ZM150.773 37.4654C150.515 37.8991 147.947 38.4804 148.336 37.2039C149.524 36.9195 150.036 37.3039 150.773 37.4654ZM152.257 35.2847C152.58 34.4297 154.022 34.9633 154.825 34.7035C154.211 36.2029 153.67 34.7773 152.257 35.2847ZM60.103 38.2521C59.6196 38.9088 57.7269 38.8211 57.4074 38.4244C57.8909 37.7677 59.7835 37.8554 60.103 38.2521ZM69.0583 37.0542C70.8568 36.5221 73.2001 36.1638 74.4209 35.6686C73.2615 36.9943 69.9883 37.2034 69.0583 37.0542ZM34.9094 78.8682C33.1437 79.1896 32.9512 79.2019 32.3778 77.987C31.9229 79.6848 34.3604 79.9462 34.9094 78.8682ZM187.953 96.207C185.352 96.999 182.693 95.7087 180.538 97.3065C184.07 96.6637 185.897 97.1728 187.953 96.207ZM197.237 92.9022C198.556 91.775 201.374 93.2637 203.492 93.1283C203.431 92.2979 203.529 91.6659 202.534 91.938C201.853 93.8588 197.63 90.374 197.237 92.9022ZM171.506 92.8775C168.392 93.285 172.464 94.0678 172.661 92.8036C171.792 93.4849 172.276 92.8282 171.506 92.8775ZM195.803 89.865C195.029 91.166 192.145 90.0987 191.37 91.3997C192.657 90.4832 195.25 92.1948 195.156 91.5751C194.291 91.0045 196.925 90.0018 195.803 89.865ZM87.6356 94.0641C88.373 94.2256 90.6793 95.3298 92.1582 94.4009C90.7777 94.6977 88.8564 93.5689 87.6356 94.0641ZM178.515 88.2578C178.708 88.2455 179.093 88.2209 179.027 88.6423C178.835 88.6546 178.45 88.6792 178.384 89.1005C179.22 88.63 180.662 89.1636 180.183 88.5685C179.863 88.1717 177.844 87.6749 178.515 88.2578ZM127.656 90.4643C127.238 90.6995 127.013 90.9225 126.914 91.5546C127.619 91.9268 127.717 91.2947 127.971 92.1128C128.647 91.4439 129.77 91.5807 129.966 90.3166C129.004 90.3781 128.004 91.9021 127.205 90.9102C127.59 90.8856 128.008 90.6503 127.656 90.4643ZM91.3595 93.409C88.8237 93.7796 95.3987 94.4025 94.5343 93.8319C93.6372 93.4721 92.0641 93.7811 91.3595 93.409ZM175.632 87.1905C175.693 88.0209 174.317 87.0659 174.378 87.8964C174.796 87.6611 176.75 88.5792 176.43 88.1824C175.885 88.0086 176.434 86.9306 175.632 87.1905ZM139.499 89.0818C138.696 89.3417 137.508 89.6262 136.832 90.2952C137.443 90.0476 138.692 90.5935 139.016 89.7385C138.631 89.7631 139.241 89.5155 139.499 89.0818ZM77.8202 93.4396C78.3364 92.5723 81.1548 94.061 80.5158 93.2674C80.0037 92.883 77.4393 92.2124 77.8202 93.4396ZM175.816 79.878C171.294 79.5412 174.882 80.9806 175.816 79.878V79.878ZM239.016 71.877C239.081 71.4556 239.626 71.6294 239.692 71.2081C238.504 71.4925 238.25 70.6744 237.508 71.7647C237.701 71.7524 237.893 71.7401 237.828 72.1615C238.856 71.6786 237.799 71.1204 239.016 71.877ZM28.5471 81.7778C29.0591 82.1622 29.0592 82.1622 28.9978 81.3318C29.3829 81.3072 30.1858 81.0473 30.0874 81.6793C30.0219 82.1007 29.7965 82.3237 29.5384 82.7574C29.9235 82.7328 30.0832 82.9312 30.4355 83.1172C30.0546 81.89 31.5336 80.9612 30.993 79.5356C30.7021 80.1799 30.5381 81.2334 30.1202 81.4687C30.0589 80.6382 28.4529 81.158 28.5471 81.7778ZM245.543 58.1102C245.51 58.3209 245.285 58.5439 244.9 58.5685C244.834 58.9898 244.895 59.8203 244.318 59.8572C244.707 58.5808 243.257 60.5508 242.679 60.5877C244.731 60.8737 245.924 59.3374 245.543 58.1102ZM32.736 57.3136C31.9986 57.1521 31.4538 56.9784 31.3596 56.3586C31.4252 55.9372 31.4908 55.5159 31.5564 55.0945C31.7489 55.0822 32.5804 55.8634 32.7116 55.0207C31.6219 54.6731 32.0726 54.2272 32.9084 53.7566C31.0771 54.4993 30.7946 52.6401 31.7287 51.5374C30.7004 52.0203 31.0241 51.1653 30.6718 50.9792C29.7663 53.123 30.6962 53.2721 30.5936 55.156C30.016 55.1929 30.0816 54.7715 29.504 54.8084C29.6267 56.4693 31.7775 56.1233 31.4496 58.2302C31.257 58.2425 31.0317 58.4655 31.384 58.6516C31.4824 58.0195 32.2525 57.9703 32.736 57.3136ZM244.901 38.9609C246.249 38.8747 244.963 39.7913 244.737 40.0143C245.831 39.11 246.306 40.957 247.175 40.2757C246.47 39.9036 245.098 37.6967 244.901 38.9609ZM223.399 31.3653C221.826 31.6743 223.718 31.762 223.62 32.3941C227.372 32.7801 231.309 35.6574 234.877 33.5522C231.354 31.6913 226.762 33.0277 223.399 31.3653ZM207.816 28.6062C209.352 29.7596 215.349 30.4194 217.979 30.6686C214.968 29.1922 211.502 29.4136 207.816 28.6062ZM35.007 40.2727C34.6505 41.3384 36.0967 40.6203 35.7074 41.8967C36.8954 41.6122 37.2477 41.7983 37.5058 41.3646C36.6087 41.0047 35.9369 40.4219 35.007 40.2727ZM82.5405 34.9413C81.2869 35.6472 81.4222 33.5526 80.4881 34.6552C82.1226 35.1766 78.4643 35.4103 78.1734 36.0547C79.5212 35.9686 82.1226 35.1766 82.5405 34.9413ZM47.814 29.0249C47.0438 29.0741 47.5929 27.9961 47.0153 28.033C46.1467 28.7143 44.6064 28.8127 44.0573 29.8907C45.5363 28.9619 46.8185 29.2971 47.814 29.0249Z" fill="white"/>
<defs>
<filter id="filter0_d" x="0" y="34" width="586" height="180" filterUnits="userSpaceOnUse" color-interpolation-filters="sRGB">
<feFlood flood-opacity="0" result="BackgroundImageFix"/>
<feColorMatrix in="SourceAlpha" type="matrix" values="0 0 0 0 0 0 0 0 0 0 0 0 0 0 0 0 0 0 127 0"/>
<feOffset dy="32"/>
<feGaussianBlur stdDeviation="12"/>
<feColorMatrix type="matrix" values="0 0 0 0 0 0 0 0 0 0 0 0 0 0 0 0 0 0 0.15 0"/>
<feBlend mode="normal" in2="BackgroundImageFix" result="effect1_dropShadow"/>
<feBlend mode="normal" in="SourceGraphic" in2="effect1_dropShadow" result="shape"/>
</filter>
</defs>
</svg>
