<?xml version="1.0" encoding="utf-8"?>
<!-- Generator: Adobe Illustrator 24.3.0, SVG Export Plug-In . SVG Version: 6.00 Build 0)  -->
<svg version="1.1" id="Layer_1" xmlns="http://www.w3.org/2000/svg" xmlns:xlink="http://www.w3.org/1999/xlink" x="0px" y="0px"
	 viewBox="0 0 93 12.7" style="enable-background:new 0 0 93 12.7;" xml:space="preserve">
<style type="text/css">
	.st0{fill:#78E3FB;}
</style>
<g id="Layer_2_1_">
	<g id="Layer_1-2">
		<path class="st0" d="M63.6,11.2l2,0.1C54,11.8,41.8,11.2,30.9,12l-2.7,0.5c-5.9,0.2-11.8,0.1-17.7-0.4c-1.7-0.2-3.4-0.8-4.7-1.9
			C5.1,10,4.4,9.4,5.1,9.1c1.4-0.1,4.8,0,4.8-0.6c0-0.1-0.7-0.2-1.4-0.2c0-0.6-2-1.8-2.7-1.8C5.2,6.2,1.1,5.2,0.4,4.9
			c-2-0.5,4.1-2.6,6.9-3c1.4-0.3,0-0.7,0-1.2c1.4,0.2,2.1-0.2,3.4,0c2-0.2,4.1-0.3,6.1-0.2c0.9,0.1,1.8,0.2,2.7,0.2
			c0.7,0,0.7,0.2,0.7,0.3V0.7c0.7,0.3,2,0,2.7,0.2V0.6C24.3,1,25.7,0.7,27,0.9V0.6c0.7,0,1.4,0,1.4-0.1V0.2c0.7-0.1,2,0.2,2-0.1v0.3
			c2.7,0,4.8,0,6.8-0.2c5.5-0.5,12.3-0.1,18.4,0.4c0.7,0,1.4,0.3,0.7,0.6l2,0c1.4,0,0.7,0.5,2,0.5c10.9,1,21.8,0.5,32.7,1.1
			C90.5,3,88,3.1,85.6,3c0,0.2,0,0.4-0.7,0.4C80.8,3.5,76,3.1,74,3.7c-1.1,0.4-2.3,0.5-3.4,0.5h2v0.4c-2.7,0.1-6.1,0.2-8.9,0.3v0.4
			h-1.4c-1.4,1,6.1,1,9.5,1.2c0,0.1,0,0.4,0,0.6h-1.4v0.3C74.6,7.5,78,7.6,82,7.6h-2.7c0,0.2,0,0.3-0.7,0.3c3,0,5.9,0.1,8.8,0.3
			c0.7,0.2,0,0.6-2.1,0.7L80,8.7V9c1.4,0,3.4-0.1,4.8,0.1c0.7,0.2-1.4,0.4-0.7,0.6c0.7,0,1.3,0.1,2,0.2c-2-0.1-4.8-0.2-6.8-0.1
			c-0.7,0.1-1.4,0.3-1.4,0.6c-2.8-0.2-5.5,0-8.2,0.9C69.1,11.5,65.7,11.2,63.6,11.2z"/>
	</g>
</g>
</svg>
