<svg xmlns="http://www.w3.org/2000/svg" viewBox="0 0 93.04 12.68"><defs><style>.cls-1{fill:#ff6839;}</style></defs><g id="Layer_2" data-name="Layer 2"><g id="Layer_1-2" data-name="Layer 1"><path class="cls-1" d="M63.62,11.2l2,.05c-11.58.5-23.82-.05-34.73.76l-2.73.53a141.35,141.35,0,0,1-17.7-.37,9.27,9.27,0,0,1-4.73-1.86C5.09,10,4.42,9.4,5.11,9.12c1.36-.12,4.76,0,4.77-.64,0-.14-.68-.16-1.36-.17,0-.58-2-1.81-2.7-1.82C5.15,6.17,1.08,5.21.4,4.9c-2-.48,4.13-2.57,6.86-3,1.36-.26,0-.73,0-1.18C8.64.94,9.33.51,10.69.69A45.91,45.91,0,0,1,16.82.52a15,15,0,0,0,2.72.19c.68,0,.67.17.67.31V.73c.68.31,2.05,0,2.73.21V.65C24.29,1,25.66.7,27,.88V.59c.69,0,1.36,0,1.37-.13V.17c.68-.13,2,.19,2.05-.1V.36c2.73,0,4.77,0,6.81-.15C42.7-.27,49.5.16,55.62.58c.68,0,1.36.32.68.6l2,.05c1.37,0,.68.45,2,.48,10.88,1,21.78.45,32.67,1.11A60.48,60.48,0,0,1,85.55,3c0,.15,0,.44-.69.43-4.09.06-8.85-.33-10.9.22a9.89,9.89,0,0,1-3.41.52l2,0v.44c-2.73.1-6.14.17-8.86.26v.44l-1.36,0c-1.38,1,6.11,1,9.51,1.23,0,.14,0,.44,0,.58l-1.36,0v.29c4.08.09,7.49.16,11.57.23l-2.72,0c0,.15,0,.3-.69.29a84.45,84.45,0,0,1,8.85.33c.67.16,0,.58-2.06.69L80,8.74V9c1.36,0,3.41-.07,4.77.1.68.16-1.37.41-.69.58a8.81,8.81,0,0,1,2,.19c-2-.05-4.76-.25-6.81-.14-.68.13-1.36.26-1.36.56a21.56,21.56,0,0,0-8.19.86C69.07,11.46,65.67,11.25,63.62,11.2Z"/></g></g></svg>